/* XPM */
static char * C:\Saturn\_Git\ss_save_parser\blue_arrow_xpm[] = {
"32 32 2 1",
" 	c None",
".	c #0000FF",
"                .               ",
"                ..              ",
"                ...             ",
"                ....            ",
"                .....           ",
"                ......          ",
"                .......         ",
"                ........        ",
"                .........       ",
"                ..........      ",
"                ...........     ",
"                ............    ",
".............................   ",
"..............................  ",
"............................... ",
"................................",
"................................",
"............................... ",
"..............................  ",
".............................   ",
"                ............    ",
"                ...........     ",
"                ..........      ",
"                .........       ",
"                ........        ",
"                .......         ",
"                ......          ",
"                .....           ",
"                ....            ",
"                ...             ",
"                ..              ",
"                .               "};
