/* XPM */
static char * C:\Saturn\__repo\ss_save_parser\cart_to_game_xpm[] = {
"73 23 240 2",
"  	c None",
". 	c #4A4A4A",
"+ 	c #A5A5A5",
"@ 	c #1A2127",
"# 	c #1B2228",
"$ 	c #1A2327",
"% 	c #383E42",
"& 	c #252D32",
"* 	c #1A1C1D",
"= 	c #F2F2F2",
"- 	c #262626",
"; 	c #939393",
"> 	c #192C3D",
", 	c #007EED",
"' 	c #008BFF",
") 	c #0280F3",
"! 	c #2592F1",
"~ 	c #038BFF",
"{ 	c #008AFF",
"] 	c #066FCF",
"^ 	c #162C3F",
"/ 	c #142C41",
"( 	c #0676DB",
"_ 	c #14314A",
": 	c #B6B6B6",
"< 	c #CECECE",
"[ 	c #9E9E9E",
"} 	c #666666",
"| 	c #1E3344",
"1 	c #056ECC",
"2 	c #0086FF",
"3 	c #0F497F",
"4 	c #C5AC81",
"5 	c #5BA3DA",
"6 	c #0084FD",
"7 	c #0085FE",
"8 	c #0089FF",
"9 	c #132F48",
"0 	c #DADADA",
"a 	c #545454",
"b 	c #9C9C9C",
"c 	c #0000FF",
"d 	c #2A4257",
"e 	c #0569C1",
"f 	c #0F4A81",
"g 	c #C0AB85",
"h 	c #A0BEC9",
"i 	c #0084FC",
"j 	c #0084FE",
"k 	c #0B5596",
"l 	c #263640",
"m 	c #D4E3FF",
"n 	c #C2C2C2",
"o 	c #1D354C",
"p 	c #0767BE",
"q 	c #056AC7",
"r 	c #5997C9",
"s 	c #0987FA",
"t 	c #0086FE",
"u 	c #0080FC",
"v 	c #8EC8F9",
"w 	c #8FC8F9",
"x 	c #49A6F8",
"y 	c #0083FE",
"z 	c #122535",
"A 	c #213746",
"B 	c #076FCD",
"C 	c #B0D8F8",
"D 	c #FFFFFF",
"E 	c #E0F2FE",
"F 	c #44A5FB",
"G 	c #0081FE",
"H 	c #008DFF",
"I 	c #112433",
"J 	c #E6E6E6",
"K 	c #223646",
"L 	c #0382F6",
"M 	c #018BFF",
"N 	c #0187FF",
"O 	c #FDFEFE",
"P 	c #A4A3A3",
"Q 	c #156AB7",
"R 	c #AAD8FE",
"S 	c #3E5263",
"T 	c #373938",
"U 	c #282A29",
"V 	c #292A2A",
"W 	c #252626",
"X 	c #191A1A",
"Y 	c #0B5799",
"Z 	c #F9FBFB",
"` 	c #929292",
" .	c #085EAC",
"..	c #C5E6FF",
"+.	c #464847",
"@.	c #0D4C83",
"#.	c #0088FF",
"$.	c #2091F3",
"%.	c #1F91F4",
"&.	c #0B85F2",
"*.	c #FEFFFF",
"=.	c #A1A1A1",
"-.	c #2970AF",
";.	c #203D52",
">.	c #1A1C19",
",.	c #1E201F",
"'.	c #0D4478",
").	c #0085FF",
"!.	c #0286FD",
"~.	c #FFE5A7",
"{.	c #FFE1A4",
"].	c #FFE0A3",
"^.	c #FDF8EC",
"/.	c #FFFCF1",
"(.	c #FFEBC0",
"_.	c #FFEBB0",
":.	c #464337",
"<.	c #112737",
"[.	c #0A68BC",
"}.	c #0A64B4",
"|.	c #0C64B6",
"1.	c #B5A47F",
"2.	c #F9DEA9",
"3.	c #F9DDA6",
"4.	c #C6B18A",
"5.	c #4C4940",
"6.	c #363737",
"7.	c #393B39",
"8.	c #3B3839",
"9.	c #3B3938",
"0.	c #3B3A37",
"a.	c #3A3837",
"b.	c #1F201F",
"c.	c #7F735B",
"d.	c #998A6C",
"e.	c #998869",
"f.	c #95866A",
"g.	c #95866B",
"h.	c #96886B",
"i.	c #32312A",
"j.	c #47494B",
"k.	c #AA9B7D",
"l.	c #69604D",
"m.	c #131614",
"n.	c #0A5DA6",
"o.	c #A29374",
"p.	c #A19272",
"q.	c #605849",
"r.	c #141616",
"s.	c #121413",
"t.	c #313332",
"u.	c #4C4E4D",
"v.	c #AEA081",
"w.	c #4F493B",
"x.	c #D0D0D0",
"y.	c #CDCDCD",
"z.	c #03213C",
"A.	c #FEE4AE",
"B.	c #F8DDA8",
"C.	c #8E8066",
"D.	c #909091",
"E.	c #D2D2D2",
"F.	c #3D3E3D",
"G.	c #3D3E3F",
"H.	c #1D1D1B",
"I.	c #F6F7F7",
"J.	c #33312B",
"K.	c #FDE1AD",
"L.	c #8E8167",
"M.	c #B1B1B2",
"N.	c #4C4D4D",
"O.	c #363636",
"P.	c #ECECEC",
"Q.	c #F3F3F3",
"R.	c #181A1A",
"S.	c #464336",
"T.	c #877B63",
"U.	c #A6A7A7",
"V.	c #3B3C3C",
"W.	c #AAAAAA",
"X.	c #2B2C2C",
"Y.	c #E0E0E0",
"Z.	c #DDDDDD",
"`.	c #0D2133",
" +	c #191D1D",
".+	c #152431",
"++	c #191C1B",
"@+	c #181919",
"#+	c #1C1E1D",
"$+	c #0B0D0C",
"%+	c #131413",
"&+	c #018AFF",
"*+	c #172329",
"=+	c #0B5A9F",
"-+	c #3C3B39",
";+	c #171B19",
">+	c #21181A",
",+	c #661018",
"'+	c #6F3D42",
")+	c #5B5B5B",
"!+	c #131716",
"~+	c #8C0F19",
"{+	c #7E468E",
"]+	c #1E1617",
"^+	c #AE0A1B",
"/+	c #CB081D",
"(+	c #8B686B",
"_+	c #646A69",
":+	c #4A5251",
"<+	c #383838",
"[+	c #2E2E2E",
"}+	c #BB091D",
"|+	c #FF001C",
"1+	c #FC0010",
"2+	c #B5B5B5",
"3+	c #9D0A1B",
"4+	c #59141B",
"5+	c #C13D48",
"6+	c #C91B2C",
"7+	c #BC081C",
"8+	c #3B2627",
"9+	c #2E2E2F",
"0+	c #FF031E",
"a+	c #FF021D",
"b+	c #FCEFF0",
"c+	c #F81C2F",
"d+	c #FB031D",
"e+	c #E9041E",
"f+	c #6F111A",
"g+	c #CA0A1E",
"h+	c #FF011C",
"i+	c #F8031C",
"j+	c #2F2929",
"k+	c #2F3030",
"l+	c #0F1B1A",
"m+	c #050707",
"n+	c #171C1B",
"o+	c #121C1A",
"p+	c #0E1B19",
"q+	c #212423",
"  . . . . . . . . . . . . . . . . . . . . . . . . . . . +                                                       @ # # $ # # # # # # %     & *     ",
". = = = = = = = = = = = = = = = = = = = = = = = = = = = - ;                                                   > , ' ' ) ! ~ { { { { ] ^ / ( _     ",
". : < < < < < < < < < < < < < < < < < < < < < < < < < [ - } +                                                   | 1 2 3 4 5 6 7 7 7 2 8 8 8 9     ",
". = = < < < < < < < < < < < < < < < < < < < < < 0 < = = - a b                         c                           d e f g h i 7 7 j j j 7 2 k l   ",
". : : = < m m m m m m m m m m m m m m m m m m m n = : : - a b                         c c                         o p q r s t 7 u v w x y 7 { z   ",
". = = < < m m m m m m m m m m m m m m m m m m m n 0 = = - a b                         c c c                     A B 7 7 7 7 7 7 C D D E F G H I   ",
". : : = < = J J J J J J J J J J J J J J J J J = n = : : - a b                         c c c c                 K L M M N 7 7 7 7 O D D P Q R S     ",
". = = < < = = = = = = = = = = = = = = = = = = = n 0 = = - a b                         c c c c c             T U V W X Y 7 7 7 t Z D D `  ...+.    ",
". : : = < = J J J J J J J J J J J J J J J J J = n = : : - a b                         c c c c c c                   @.#.7 7 $.%.&.*.D =.-.;.>.,.  ",
". 0 n < < = = = = = = = = = = = = = = = = = = = n < < [ - a b         c c c c c c c c c c c c c c c               '.#.t ).!.~.{.].^.^./.(._.:.    ",
". 0 n < < = J J J J J J J J J J J J J J J J J = n < < [ - a b         c c c c c c c c c c c c c c c c           <.[.}.}.}.|.1.2.2.3.3.3.2.4.5.    ",
". 0 n < < = = = = = = = = = = = = = = = = = = = n < < [ - a b         c c c c c c c c c c c c c c c c         6.7.8.9.0.a.b.c.d.e.f.g.h.d.i.      ",
". 0 n < < = J J J J J J J J J J J J J J J J J = n < < [ - a b         c c c c c c c c c c c c c c c                     j.k.l.m.n.o.p.q.r.s.t.    ",
". 0 n < < = = = = = = = = = = = = = = = = = = = n < < [ - a b                         c c c c c c                     u.v.w.x.y.z.A.B.C.D.E.F.    ",
". 0 n < n n n n n n n n n n n n n n n n n n n n n < < [ - a b                         c c c c c                       G.H.I.D D D J.K.L.M.D N.    ",
". 0 n < < < < < < < < < < < < < < < < < < < < < < < < [ - a b                         c c c c                           O.P.D D Q.R.S.T.U.V.      ",
". 0 n < < < < < < < < < W.= W.= W.= < < < < < < < < < [ - a b                         c c c                               X.Y.Z.`. +.+++@+#+      ",
". 0 n < < < < < < < < W.= W.= W.= < < < < < < < < < < [ - a b                         c c                                   $+%+&+*+=+-+          ",
". 0 n < < < < < < < < < < < < < < < < < < < < < < < < [ - a b                         c                                     s.;+#.>+,+'+          ",
". 0 n n n n n n n n n n n n n n n n n n n n n n n n n [ - a b                                                             )+!+~+{+]+^+/+(+_+:+    ",
"+ - - - - - - - - - - - - - - - - - - - - - - - - - - - <+} +                                                             [+}+|+1+2+3+4+5+6+7+8+  ",
"  ; } a a a a a a a a a a a a a a a a a a a a a a a a a } ;                                                               9+0+a+b+c+d+e+f+g+h+i+j+",
"    + b b b b b b b b b b b b b b b b b b b b b b b b b +                                                                 k+l+l+m+l+l+l+n+o+l+p+q+"};
