/* XPM */
static char * C:\Saturn\__repo\ss_save_parser\game_to_cart_xpm[] = {
"71 23 240 2",
"  	c None",
". 	c #1A2127",
"+ 	c #1B2228",
"@ 	c #1A2327",
"# 	c #383E42",
"$ 	c #252D32",
"% 	c #1A1C1D",
"& 	c #4A4A4A",
"* 	c #A5A5A5",
"= 	c #192C3D",
"- 	c #007EED",
"; 	c #008BFF",
"> 	c #0280F3",
", 	c #2592F1",
"' 	c #038BFF",
") 	c #008AFF",
"! 	c #066FCF",
"~ 	c #162C3F",
"{ 	c #142C41",
"] 	c #0676DB",
"^ 	c #14314A",
"/ 	c #F2F2F2",
"( 	c #262626",
"_ 	c #939393",
": 	c #1E3344",
"< 	c #056ECC",
"[ 	c #0086FF",
"} 	c #0F497F",
"| 	c #C5AC81",
"1 	c #5BA3DA",
"2 	c #0084FD",
"3 	c #0085FE",
"4 	c #0089FF",
"5 	c #132F48",
"6 	c #B6B6B6",
"7 	c #CECECE",
"8 	c #9E9E9E",
"9 	c #666666",
"0 	c #2A4257",
"a 	c #0569C1",
"b 	c #0F4A81",
"c 	c #C0AB85",
"d 	c #A0BEC9",
"e 	c #0084FC",
"f 	c #0084FE",
"g 	c #0B5596",
"h 	c #263640",
"i 	c #0000FF",
"j 	c #DADADA",
"k 	c #545454",
"l 	c #9C9C9C",
"m 	c #1D354C",
"n 	c #0767BE",
"o 	c #056AC7",
"p 	c #5997C9",
"q 	c #0987FA",
"r 	c #0086FE",
"s 	c #0080FC",
"t 	c #8EC8F9",
"u 	c #8FC8F9",
"v 	c #49A6F8",
"w 	c #0083FE",
"x 	c #122535",
"y 	c #D4E3FF",
"z 	c #C2C2C2",
"A 	c #213746",
"B 	c #076FCD",
"C 	c #B0D8F8",
"D 	c #FFFFFF",
"E 	c #E0F2FE",
"F 	c #44A5FB",
"G 	c #0081FE",
"H 	c #008DFF",
"I 	c #112433",
"J 	c #223646",
"K 	c #0382F6",
"L 	c #018BFF",
"M 	c #0187FF",
"N 	c #FDFEFE",
"O 	c #A4A3A3",
"P 	c #156AB7",
"Q 	c #AAD8FE",
"R 	c #3E5263",
"S 	c #E6E6E6",
"T 	c #373938",
"U 	c #282A29",
"V 	c #292A2A",
"W 	c #252626",
"X 	c #191A1A",
"Y 	c #0B5799",
"Z 	c #F9FBFB",
"` 	c #929292",
" .	c #085EAC",
"..	c #C5E6FF",
"+.	c #464847",
"@.	c #0D4C83",
"#.	c #0088FF",
"$.	c #2091F3",
"%.	c #1F91F4",
"&.	c #0B85F2",
"*.	c #FEFFFF",
"=.	c #A1A1A1",
"-.	c #2970AF",
";.	c #203D52",
">.	c #1A1C19",
",.	c #1E201F",
"'.	c #0D4478",
").	c #0085FF",
"!.	c #0286FD",
"~.	c #FFE5A7",
"{.	c #FFE1A4",
"].	c #FFE0A3",
"^.	c #FDF8EC",
"/.	c #FFFCF1",
"(.	c #FFEBC0",
"_.	c #FFEBB0",
":.	c #464337",
"<.	c #112737",
"[.	c #0A68BC",
"}.	c #0A64B4",
"|.	c #0C64B6",
"1.	c #B5A47F",
"2.	c #F9DEA9",
"3.	c #F9DDA6",
"4.	c #C6B18A",
"5.	c #4C4940",
"6.	c #363737",
"7.	c #393B39",
"8.	c #3B3839",
"9.	c #3B3938",
"0.	c #3B3A37",
"a.	c #3A3837",
"b.	c #1F201F",
"c.	c #7F735B",
"d.	c #998A6C",
"e.	c #998869",
"f.	c #95866A",
"g.	c #95866B",
"h.	c #96886B",
"i.	c #32312A",
"j.	c #47494B",
"k.	c #AA9B7D",
"l.	c #69604D",
"m.	c #131614",
"n.	c #0A5DA6",
"o.	c #A29374",
"p.	c #A19272",
"q.	c #605849",
"r.	c #141616",
"s.	c #121413",
"t.	c #313332",
"u.	c #4C4E4D",
"v.	c #AEA081",
"w.	c #4F493B",
"x.	c #D0D0D0",
"y.	c #CDCDCD",
"z.	c #03213C",
"A.	c #FEE4AE",
"B.	c #F8DDA8",
"C.	c #8E8066",
"D.	c #909091",
"E.	c #D2D2D2",
"F.	c #3D3E3D",
"G.	c #3D3E3F",
"H.	c #1D1D1B",
"I.	c #F6F7F7",
"J.	c #33312B",
"K.	c #FDE1AD",
"L.	c #8E8167",
"M.	c #B1B1B2",
"N.	c #4C4D4D",
"O.	c #363636",
"P.	c #ECECEC",
"Q.	c #F3F3F3",
"R.	c #181A1A",
"S.	c #464336",
"T.	c #877B63",
"U.	c #A6A7A7",
"V.	c #3B3C3C",
"W.	c #2B2C2C",
"X.	c #E0E0E0",
"Y.	c #DDDDDD",
"Z.	c #0D2133",
"`.	c #191D1D",
" +	c #152431",
".+	c #191C1B",
"++	c #181919",
"@+	c #1C1E1D",
"#+	c #AAAAAA",
"$+	c #0B0D0C",
"%+	c #131413",
"&+	c #018AFF",
"*+	c #172329",
"=+	c #0B5A9F",
"-+	c #3C3B39",
";+	c #171B19",
">+	c #21181A",
",+	c #661018",
"'+	c #6F3D42",
")+	c #5B5B5B",
"!+	c #131716",
"~+	c #8C0F19",
"{+	c #7E468E",
"]+	c #1E1617",
"^+	c #AE0A1B",
"/+	c #CB081D",
"(+	c #8B686B",
"_+	c #646A69",
":+	c #4A5251",
"<+	c #2E2E2E",
"[+	c #BB091D",
"}+	c #FF001C",
"|+	c #FC0010",
"1+	c #B5B5B5",
"2+	c #9D0A1B",
"3+	c #59141B",
"4+	c #C13D48",
"5+	c #C91B2C",
"6+	c #BC081C",
"7+	c #3B2627",
"8+	c #383838",
"9+	c #2E2E2F",
"0+	c #FF031E",
"a+	c #FF021D",
"b+	c #FCEFF0",
"c+	c #F81C2F",
"d+	c #FB031D",
"e+	c #E9041E",
"f+	c #6F111A",
"g+	c #CA0A1E",
"h+	c #FF011C",
"i+	c #F8031C",
"j+	c #2F2929",
"k+	c #2F3030",
"l+	c #0F1B1A",
"m+	c #050707",
"n+	c #171C1B",
"o+	c #121C1A",
"p+	c #0E1B19",
"q+	c #212423",
"    . + + @ + + + + + + #     $ %                                                 & & & & & & & & & & & & & & & & & & & & & & & & & & & *     ",
"  = - ; ; > , ' ) ) ) ) ! ~ { ] ^                                               & / / / / / / / / / / / / / / / / / / / / / / / / / / / ( _   ",
"    : < [ } | 1 2 3 3 3 [ 4 4 4 5                                               & 6 7 7 7 7 7 7 7 7 7 7 7 7 7 7 7 7 7 7 7 7 7 7 7 7 7 8 ( 9 * ",
"      0 a b c d e 3 3 f f f 3 [ g h                       i                     & / / 7 7 7 7 7 7 7 7 7 7 7 7 7 7 7 7 7 7 7 7 7 j 7 / / ( k l ",
"      m n o p q r 3 s t u v w 3 ) x                       i i                   & 6 6 / 7 y y y y y y y y y y y y y y y y y y y z / 6 6 ( k l ",
"    A B 3 3 3 3 3 3 C D D E F G H I                       i i i                 & / / 7 7 y y y y y y y y y y y y y y y y y y y z j / / ( k l ",
"  J K L L M 3 3 3 3 N D D O P Q R                         i i i i               & 6 6 / 7 / S S S S S S S S S S S S S S S S S / z / 6 6 ( k l ",
"T U V W X Y 3 3 3 r Z D D `  ...+.                        i i i i i             & / / 7 7 / / / / / / / / / / / / / / / / / / / z j / / ( k l ",
"        @.#.3 3 $.%.&.*.D =.-.;.>.,.                      i i i i i i           & 6 6 / 7 / S S S S S S S S S S S S S S S S S / z / 6 6 ( k l ",
"      '.#.r ).!.~.{.].^.^./.(._.:.        i i i i i i i i i i i i i i i         & j z 7 7 / / / / / / / / / / / / / / / / / / / z 7 7 8 ( k l ",
"    <.[.}.}.}.|.1.2.2.3.3.3.2.4.5.        i i i i i i i i i i i i i i i i       & j z 7 7 / S S S S S S S S S S S S S S S S S / z 7 7 8 ( k l ",
"  6.7.8.9.0.a.b.c.d.e.f.g.h.d.i.          i i i i i i i i i i i i i i i i       & j z 7 7 / / / / / / / / / / / / / / / / / / / z 7 7 8 ( k l ",
"            j.k.l.m.n.o.p.q.r.s.t.        i i i i i i i i i i i i i i i         & j z 7 7 / S S S S S S S S S S S S S S S S S / z 7 7 8 ( k l ",
"          u.v.w.x.y.z.A.B.C.D.E.F.                        i i i i i i           & j z 7 7 / / / / / / / / / / / / / / / / / / / z 7 7 8 ( k l ",
"          G.H.I.D D D J.K.L.M.D N.                        i i i i i             & j z 7 z z z z z z z z z z z z z z z z z z z z z 7 7 8 ( k l ",
"            O.P.D D Q.R.S.T.U.V.                          i i i i               & j z 7 7 7 7 7 7 7 7 7 7 7 7 7 7 7 7 7 7 7 7 7 7 7 7 8 ( k l ",
"              W.X.Y.Z.`. +.+++@+                          i i i                 & j z 7 7 7 7 7 7 7 7 7 #+/ #+/ #+/ 7 7 7 7 7 7 7 7 7 8 ( k l ",
"                $+%+&+*+=+-+                              i i                   & j z 7 7 7 7 7 7 7 7 #+/ #+/ #+/ 7 7 7 7 7 7 7 7 7 7 8 ( k l ",
"                s.;+#.>+,+'+                              i                     & j z 7 7 7 7 7 7 7 7 7 7 7 7 7 7 7 7 7 7 7 7 7 7 7 7 8 ( k l ",
"              )+!+~+{+]+^+/+(+_+:+                                              & j z z z z z z z z z z z z z z z z z z z z z z z z z 8 ( k l ",
"              <+[+}+|+1+2+3+4+5+6+7+                                            * ( ( ( ( ( ( ( ( ( ( ( ( ( ( ( ( ( ( ( ( ( ( ( ( ( ( ( 8+9 * ",
"              9+0+a+b+c+d+e+f+g+h+i+j+                                            _ 9 k k k k k k k k k k k k k k k k k k k k k k k k k 9 _   ",
"              k+l+l+m+l+l+l+n+o+l+p+q+                                              * l l l l l l l l l l l l l l l l l l l l l l l l l *     "};
