/* XPM */
static char * C:\Saturn\GIT\ss_save_parser\map_xpm[] = {
"73 23 20 1",
" 	c #000000",
".	c #FFFFFF",
"+	c #F7AD00",
"@	c #F7B500",
"#	c #00E444",
"$	c #C2AF00",
"%	c #007C38",
"&	c #007C3C",
"*	c #007B40",
"=	c #FE2200",
"-	c #FA6800",
";	c #77BC00",
">	c #00AD68",
",	c #2C8500",
"'	c #288500",
")	c #612A00",
"!	c #F89D00",
"~	c #E3F300",
"{	c #47EB00",
"]	c #0088D7",
"                                                                         ",
" ... ... ... ... +++ +++ ... @@@ @@@ @@@ @@@ @@@ @@@ ... ... ... ### ### ",
" ... ... ... ... +++ +++ ... @@@ @@@ @@@ @@@ @@@ @@@ ... ... ... ### ### ",
" ... ... ... ... +++ +++ ... @@@ @@@ @@@ @@@ @@@ @@@ ... ... ... ### ### ",
"                                                                         ",
" $$$ $$$ $$$ $$$ $$$ $$$ $$$ $$$ $$$ $$$ $$$ $$$ $$$ $$$ $$$ $$$ $$$ $$$ ",
" $$$ $$$ $$$ $$$ $$$ $$$ $$$ $$$ $$$ $$$ $$$ $$$ $$$ $$$ $$$ $$$ $$$ $$$ ",
" $$$ $$$ $$$ $$$ $$$ $$$ $$$ $$$ $$$ $$$ $$$ $$$ $$$ $$$ $$$ $$$ $$$ $$$ ",
"                                                                         ",
" %%% %%% %%% %%% %%% %%% %%% %%% %%% %%% %%% %%% %%% %%% %%% ... &&& &&& ",
" %%% %%% %%% %%% %%% %%% %%% %%% %%% %%% %%% %%% %%% %%% %%% ... &&& &&& ",
" %%% %%% %%% %%% %%% %%% %%% %%% %%% %%% %%% %%% %%% %%% %%% ... &&& &&& ",
"                                                                         ",
" *** *** *** *** *** *** *** *** *** *** *** ... === ... --- --- --- ... ",
" *** *** *** *** *** *** *** *** *** *** *** ... === ... --- --- --- ... ",
" *** *** *** *** *** *** *** *** *** *** *** ... === ... --- --- --- ... ",
"                                                                         ",
" ... ... ;;; ... ... ... >>> ... ... ... ... ... ... ... ,,, ... ''' ''' ",
" ... ... ;;; ... ... ... >>> ... ... ... ... ... ... ... ,,, ... ''' ''' ",
" ... ... ;;; ... ... ... >>> ... ... ... ... ... ... ... ,,, ... ''' ''' ",
"                                                                         ",
" ))) ))) ... !!! !!! !!! !!! !!! ... ~~~ ~~~ ~~~ ... {{{ ... ... ... ]]] ",
" ))) ))) ... !!! !!! !!! !!! !!! ... ~~~ ~~~ ~~~ ... {{{ ... ... ... ]]] "};
