/* XPM */
static char * C:\Saturn\Parser_Qt\SS_Backup_RAM_Parser\masqurin_highwizard_xpm[] = {
"64 64 248 2",
"  	c None",
". 	c #ECC59B",
"+ 	c #FFCE7F",
"@ 	c #FFEA9F",
"# 	c #FFFFC6",
"$ 	c #FFFFDE",
"% 	c #FFFFD6",
"& 	c #FFFFB5",
"* 	c #FFCF9D",
"= 	c #D1AA56",
"- 	c #B77452",
"; 	c #84523D",
"> 	c #92462D",
", 	c #77372C",
"' 	c #774231",
") 	c #90563D",
"! 	c #BB8F61",
"~ 	c #D0C271",
"{ 	c #696060",
"] 	c #151C33",
"^ 	c #313352",
"/ 	c #424252",
"( 	c #716979",
"_ 	c #FFF3A9",
": 	c #FFFFAD",
"< 	c #A0947D",
"[ 	c #FFFFCE",
"} 	c #FFFFEF",
"| 	c #FFFFBD",
"1 	c #FFE18F",
"2 	c #EFAA6F",
"3 	c #D67B4A",
"4 	c #AD5A3D",
"5 	c #7E4939",
"6 	c #6E5239",
"7 	c #6F5047",
"8 	c #937547",
"9 	c #8D7157",
"0 	c #4E4B5D",
"a 	c #543F26",
"b 	c #925E30",
"c 	c #D19045",
"d 	c #E79046",
"e 	c #AF633F",
"f 	c #8C4239",
"g 	c #6E4139",
"h 	c #A46B3D",
"i 	c #BF7A4A",
"j 	c #523929",
"k 	c #2F2925",
"l 	c #1C2950",
"m 	c #353D5A",
"n 	c #F7F7BD",
"o 	c #EECCB2",
"p 	c #192041",
"q 	c #39465E",
"r 	c #FFEC8C",
"s 	c #FFDA84",
"t 	c #FFC56C",
"u 	c #FFAD5A",
"v 	c #F5A953",
"w 	c #F89550",
"x 	c #F78C41",
"y 	c #FF9C4A",
"z 	c #FFA552",
"A 	c #EB984A",
"B 	c #976140",
"C 	c #94483B",
"D 	c #E17E47",
"E 	c #88332F",
"F 	c #CA7652",
"G 	c #8C462D",
"H 	c #403A2A",
"I 	c #9E999E",
"J 	c #E4E39B",
"K 	c #42314A",
"L 	c #252030",
"M 	c #4A3B3F",
"N 	c #917C75",
"O 	c #CDA176",
"P 	c #A48B58",
"Q 	c #FFAE68",
"R 	c #EF9C4A",
"S 	c #EB8442",
"T 	c #E27742",
"U 	c #BB5E39",
"V 	c #C95B35",
"W 	c #C9693B",
"X 	c #FFB96A",
"Y 	c #733529",
"Z 	c #673B2D",
"` 	c #B97A3C",
" .	c #FFAD52",
"..	c #FFF99C",
"+.	c #FFFBA9",
"@.	c #FFE7B9",
"#.	c #C4AAA8",
"$.	c #EA8258",
"%.	c #E76B42",
"&.	c #F47F45",
"*.	c #EF8C46",
"=.	c #A0563D",
"-.	c #E7925A",
";.	c #94502D",
">.	c #D76B3B",
",.	c #5A3931",
"'.	c #EC7836",
").	c #A37F44",
"!.	c #D6C9CE",
"~.	c #F49957",
"{.	c #BD6740",
"].	c #C1684A",
"^.	c #A76043",
"/.	c #AE4E31",
"(.	c #FFC57B",
"_.	c #9F352A",
":.	c #2E332A",
"<.	c #393139",
"[.	c #23251E",
"}.	c #2D273E",
"|.	c #FFFFE7",
"1.	c #CBC0B3",
"2.	c #FB9045",
"3.	c #9F4C39",
"4.	c #7D5431",
"5.	c #664A2F",
"6.	c #856E43",
"7.	c #FFDEB5",
"8.	c #D58F62",
"9.	c #7B4229",
"0.	c #844A29",
"a.	c #FFFFFF",
"b.	c #FFF7EF",
"c.	c #40251F",
"d.	c #5F271E",
"e.	c #C65035",
"f.	c #633929",
"g.	c #D76331",
"h.	c #DF7335",
"i.	c #F17342",
"j.	c #FFF1B7",
"k.	c #CDBF97",
"l.	c #5E4231",
"m.	c #D47D3C",
"n.	c #FFFFF7",
"o.	c #FFF98C",
"p.	c #5C3525",
"q.	c #844231",
"r.	c #DA6E46",
"s.	c #291012",
"t.	c #4A3427",
"u.	c #391010",
"v.	c #706345",
"w.	c #322211",
"x.	c #3E3425",
"y.	c #623923",
"z.	c #C9773C",
"A.	c #844A21",
"B.	c #F3E06B",
"C.	c #AF5F2C",
"D.	c #FFF7E7",
"E.	c #41272B",
"F.	c #A56856",
"G.	c #CAA590",
"H.	c #EFA78F",
"I.	c #E6CE6C",
"J.	c #9C4629",
"K.	c #E27857",
"L.	c #FFE7DE",
"M.	c #FFDECE",
"N.	c #FFCEC6",
"O.	c #F8A89F",
"P.	c #E88C6F",
"Q.	c #F5946C",
"R.	c #FFD6C6",
"S.	c #FFE7CE",
"T.	c #FFE7D6",
"U.	c #FFC8B7",
"V.	c #FFB9B5",
"W.	c #FFB9A9",
"X.	c #CA7965",
"Y.	c #F4DED0",
"Z.	c #FFDEC6",
"`.	c #FFEFDE",
" +	c #FFD6CE",
".+	c #F99C41",
"++	c #FFD6BD",
"@+	c #FFD2B9",
"#+	c #FFDEBD",
"$+	c #FFE7C6",
"%+	c #4E2722",
"&+	c #FFBD97",
"*+	c #393142",
"=+	c #B14C39",
"-+	c #F1CECB",
";+	c #C77658",
">+	c #342320",
",+	c #A7452C",
"'+	c #57403D",
")+	c #F7F3DE",
"!+	c #FFF7DA",
"~+	c #4B2715",
"{+	c #733A1F",
"]+	c #503B50",
"^+	c #8C3D20",
"/+	c #181C20",
"(+	c #181810",
"_+	c #080808",
":+	c #424239",
"<+	c #464A2E",
"[+	c #39394A",
"}+	c #FBDADE",
"|+	c #853C20",
"1+	c #DBDED6",
"2+	c #645B31",
"3+	c #08140C",
"4+	c #001010",
"5+	c #000810",
"6+	c #39424A",
"7+	c #422D39",
"8+	c #42394A",
"9+	c #394239",
"0+	c #FFEFCE",
"a+	c #121008",
"b+	c #313146",
"c+	c #2B3B50",
"d+	c #E46037",
"e+	c #FFF4CE",
"f+	c #332952",
"g+	c #1E121E",
"h+	c #DF5533",
"i+	c #FFDEDA",
"j+	c #3F373F",
"k+	c #42424A",
"l+	c #04081C",
"m+	c #FFED6E",
"n+	c #101220",
"o+	c #120A1B",
"p+	c #423152",
"q+	c #39425A",
"r+	c #080018",
"s+	c #C93F2B",
"t+	c #DC472B",
"u+	c #37273C",
"v+	c #393973",
"w+	c #203C5F",
"x+	c #FFD6DE",
"y+	c #292F52",
"                                                                                                                                ",
"  . + @ # $ % % $ # & # * = - ; > , ' ) ! ~ . & & { ] ]                   ^ ^   /           ( _ : & & & <                       ",
"  # [ # $ $ [ [ [ % } } } | | 1 2 3 4 5 6 7 8 9 0 a b c d 3 e f g 5 h i i j k l m         9 n | | o { p ]               q       ",
"  & : _ r r s + + t u v w x y z A B C b ; e D v ! 8 E e u u u w F G 5 4 A s v b H       I | # J K p L M ; N O P {               ",
"  + Q R y w S S x D T D S S T U 4 - = Q v V W v s X h Y 5 D R w y d 4 Z Y = & t d < I { # # N L g `  .X r ..+.[ $ @.#.(         ",
"  x x D $.%.D d &.y w *.D =.' 5 ) e X X + u $.e x A -.h ;.i d S >.A Q d E ,.= r Q '.N n & < 0 ` i B 8 6 6 6 ).).= . | % !.(     ",
"  T *.w w y ~.w D {.` C ' g ; ].^.f i 2 X t z /.e (.+ @ * X w X _ * 1 s (._.' + (.` O | t 6 :.<.[.l           }.      P +.|.1.  ",
"  y 2.D T F {.4 f ' Z Z g B *.&.3.4 U B = ~.i (.n % & | @ ~.1 # @ 4.5.6. .2.' 4.u P 7.= b h c c 8.          0   q         < $   ",
"  e 4 f 5 ' ' 9.' C g 0.3.i X T C 4 %.C ;.i s $ a.# ..& ..(.b.|.8 c.j d.c z e.5 ).. ).S d ~.z ~.z t i                       {   ",
"  Y f.5 ' ; 3.C =.f.f 3 g.].s h.=.4 i./.).j.a.a.$ ..% } s # } k.d.l.5.g =.u w =.b ). .d ; ) d v d w 1 (.    q                   ",
"  5 C C 3.e W W 3.C m.w W {.(.>.=.4 V i r n.|.r o.$ a.: S |.# 4., 5 a 5.p.A ~.q.{.z ^.f.Z ,.Z i X 1 h.1 _ `                     ",
"  e ].V m.i.'.W ' ;.v y r.{.(.>.3.3.c _ [ |.s u n.a.: ` . n.~ s.5.5 Z l.l.3 ~.=.z b Z l.l.5.l.,.c 1 * 2 +._ 2                   ",
"  g.T T i.$.U 9.t.; u u >.{.t >.3.B @ | # (.2.# a.# ` u.+.# v.t.,.4.5 Z g B D z ^.Z ' g f.5.q.g Z v : _ ..| : 2                 ",
"  D &.*.2.U Z a G =.~.u 3 {.(.V 4.X +.: X x 1 } $ X w.H | J c.' x.:.f.a Z f.c 3 ' f.,.y.5 5 5 a H z.+.| +.: $ | ~.              ",
"  D *.w ^.5.t.B h.> z.X D W u /.).& @ + S Q # } @ A.L 9.| . p.{.) g 6 x.t.l.d ' t.t.j H t.a j Z H B B.| # ..} % +.8.            ",
"  S D C.C ) ' W &.q.3.z ~.>.W B u s Q h.x 1 D.# = E.B F.+ . G.H.$.3 r.^.g 5 ; 5.) - - ; ^.5 E.l.5 5 *.: a.# $ a.& & I.          ",
"  S 5 e 2.4 B x D J.;.i z F b i t u h.m.~.| |.1 b 9 K.{.I.. L.M.N.O.H.K.K.F ^.- F K.r.K.P.$.- l.l.g m.r } $ [ a.& ..@ N         ",
"  ' 4 &.d Z e *.%.U C =.w 4 B X u m.r.*.(.[ # (.Z $.Q.- c (.R.M.S.T.U.V.P.3 F Q.O.O.W.P.].K.P.X.5 :.^. .$ a.: # +.+.k.| N       ",
"  =.x w =.x.=.T S %./.=.W {.d z d e.D z (.| : 2 ) P.H.X.z.2 Y.Z.Z.S.`.T.N.V.W. +S.T.D. +P.F F P.Q.g 6 .+% a.: : & +.).k.[ 6     ",
"  w y ` f.t.;.h.D T >./.C h w y r.W 2.X s _ & ! r.H.W.H.U c N.M.++N.++ +S.T.M.M.R.Z.@+`.W.X.3 F $.8.,.m.& } ......& 3 6 n @ }.  ",
"  *.r., H 5 3.].T T h.U > 3 z r.V D A (.+ @ J B K.W.U.P.z.3 @+M.R.++#+Z.Z.Z.$+N.++Z.R.S.T.P.].K.X.$.7 C.& |._ : & # Q s.N [ P   ",
"  T f.t.%+h S C T T '.U 4 A y U 4 S w + + @ 1 4 H.a.|.O.! g.&+T.S.S.S.R.M.S.R.T.Z.R.++R.T.H.F K.K.P.B C.j.} 1 ..& | -.5.*+o &   ",
"  ; x.,.t.e S f W S T U 3.*.d =+z.D S s * 1 @ f ! 1.-+o O.g.D $+S.@+@+R.@+@+M.@+Z.++R.7.M.&+X.F ;+$.F.=.r % (.r & [ -.e L ( n   ",
"  k j a Y W A C ^.S &.U 4 *.F h 3 *.S (.+ 1 ~ M j Z 4.! P 3.B D.} T.Z.M.S. +$+M.M.M.R.M.T.V.F K.X.$.F.9.@ % w X & [ 2 m.j p k.  ",
"  >+l.t.5 D &.=.) >.&.{.3.R =.,+d *.$.+ s * < K.F ^.f 3.,+j '+P H.)+T.Z.R.#+N.#+R.U.S.T.} T.H.3 8.$.;+;.+ : *.u +.& ! d 4.p <   ",
"  a l.x.' r.*.3 3.4 i.>.^.c G G ~.S D (.+ + P 3 - - F.F.B 5 5.Y y.< $ R.@+M.@+Z.++!+`.#.O N {.3.G ' - ].+ _ *.u @ n 9 i h p N   ",
"  C p.x.q.T w S e ; T >.e 3 p.4.u w D Q (.t ! B ) ) =.) ; F.p.F.g ~+. `. +Z.M.Z.T.o v.{+{+Y 5 6 5 '+'+B X s d ~.t j.'+` ` p {   ",
"  V 9.k Z m.w &.U G {.T 4 B t.9.v *.D Q + 2 { ) ; '+6 l.B 7 ; B 8.G ! Y.#+N.++Z.S.#.f.3.) 0.; ; 6 e ; 6.X + S *.+ J ]+` i       ",
"  ,+^+w.t.3.2.w T C C.T 4 ; a 5 z -.S ~.t ~ w./+[.(+(+_+(+H F.7 - K.O.M.M.#+R.Z.T.U.X.B ) F.- - - 9 F.=.Q (.T *.X < <.- z.      ",
"  9 ; f.p.J.W '.'.e ; z.{.; j G ~.-.D ~.X -.0 :+>+k <+I <.L [.:+' K.++`.S.Z.Z.M.R.P.- 5 F.B ; 7 ) ;+7 i u Q D *.u 8 [+- h       ",
"  }+T.M.Y.I < - F {.|+U =.9.j 5 d *.*.-.R X 1+>+x.w.:.a.a.2+0 _+'+. R.Z.@+R.++Z.Z.K.4 7 x.L 3+3+4+g g ].v -.D A R '+l i )       ",
"  R.G.#.7.`.} } }+I v.=.e 5 l.G F ~.*.D w Q 1.[.B 8 5+n.n.( n.#.{ I S.S.Z.R.S.R.T. +G.>+L [.I v.0 6+'+c z T D ~.c 7+l - B       ",
"  G.Y.G.X.P 9 o S.b.D.< 3.9., C b -.-.T D u < H 4.F.%+G.v.1.n.a.`.N R.Z.R.#+R.#+R.} #.3+:+(+a.#.|.1+6.D w >.*.u e 8+l - 5.      ",
"  |+k.a.W.X.]./.b <  +Z.K.l.{ U 9.8.d D r.*.v 7 x.6 ` h 9+I } a.0+U.@+R.Z.M.#+R.#+D.I w.6.a+I !.a.1+3 2.].D z  .' b+c+B 6       ",
"    ^+G.|.b.N.F.W r.h N - F.( d+0.B R *.r.r.u G.'+k '+b 7 I a.} Z.T.S.Z.T.R.R.Z.R.|.#.>+8.M {+e+a.P m.{.z.w u ` f+q ^ g '+      ",
"      G I |.|.L.9 =.r.F ^.'+6.i.=+9.].*.D V ~.h :+N M.#.I o $+R.U.R.7.R.U.M.$+ +7.T.G.[.h i 4.N N d+4 q.-.z x g+] L }.k         ",
"          A.o n.`.F.5 3 P.^.4.%.>.5 ) D z F W A  +n.n.n.} M.M.Z.M.$+T.Z.T.S.o R.M.S.b.#.< '+{ 9.V r., 3 .+d 9 { ( { ( :.        ",
"              k.n.V.].; ^.F.e d+d+>., F '.T $.r.* b.} } !+T.Z. +#+R.Z. +W.O.6.. Z.N.@+T.Z.!.H.D >.g e y R #.}+|.|.D.1.          ",
"                ! D.P.K.F ; ) g.>.T 5 ;+4 S H.}+&+H.0+|.D.S.M.$+R.Z.R.* O.P.;+7 o )+S.#+T.T.H.W q.; w z.v.I G.@+T.<             ",
"                  0.G.-.P.$.^.h+>.S q.^.- 4 m.@+D.!+@+`.D.M.0+M.Z.T.W.W.P.P.$.f.. L.R.N.T.W.! O ) W h.< ( ) ! #.(               ",
"                    , q.F.- ) >.d+D e.^.;+^.C.8.S.|.T.0+S.$+N.R.R.Z.++@+O.H.P.G.-+Z.Z.Z.M.$.8.V.Q.].; o U.#+1.t.                ",
"                      H 9.Z 5 >.h+A d ; ;+K.F C.;+#+S.S.S.M.S.M.Z.R.Z.M.T.L.`.i+R.R.Z.`.Q.W.W.i C.( G.{.X.7 L                   ",
"                      x.7+y.' W h+-.X q.- K.8.H.O P.U.S.M.S.@+++R.Z.T.S.S.T.$+Z.Z.++Z.U.R.W.! X.{ 9 {                           ",
"                        K A.' e >.T t A ; K.$.P.W.W.&+ +++++R.M.#+ +o o o -+@+S.Z.i+Z.M.S. +i+-+! ;.                            ",
"                        j+q.' q.%.h.t (.0.F.K.8.H.M.T.M.S.M.T.Z.T.0+0 k+0 v.#.++M.#+R.@+N.$+b.< d `                             ",
"                        *+q.f.G U d+*.+ v ' F K.P.U.S.R.Z.++#+N.++R.#+M.@.T.Z.R.@+M.#+Z.S.} I > y `                             ",
"                        b+c.q.v.).d+h.1 1 B 9 K.8.H.M.Z.R.++ +S.M.T.H.K.P.&+}+$+M.++ +0+} N <.=+y c                             ",
"                        K c I.B.= U V u | ~ 5 ].$.P.U.`.Z.R.$+M.++T.W.O.@+ +@+R.@+Z.0+T.N l+) d+w v ]+                          ",
"                        ).m+m+~ 2+6.>.*.@ & 9 c.^.-.H.&+M.Z.@+R.Z.@+M.Z.M.Z.R.Z.T.|.Y.E.L   C h+-.s l.                          ",
"                      ;.o.o.).2+<+<+>.g.* % ~ >+>+5 8.Q.U.!+`.$+M.Z.#+M.Z.R.0+`.$ N L }.    ^.d+v s v.                          ",
"                      h $ % 2+H H 2+` g.z : !+- 3+:.a - O O.S.S.M.Z.M.@+R.!+|.o 0 L         4 h+2 _ ).                          ",
"                        o.} 6.H 9+H B >.d j.$ 7.) c.[.[.6 F.O o )+`.D.$ D.`.{ ] <.          - h+X _ ~                           ",
"                        = |.B.(+k x.<+r.S _ % @ - - B t./+w.l.{+8 < 1.. G.n+o+p+m       q+  B d+t [ @.                          ",
"                        6.B.# P 3+:.<+3 '.* % | O F $.;+; x.k [.[.c.w.a+r+~ I.2+            ^.h.X % } N                         ",
"                        s+6.B.m+I.l+[.8 h.j.a.|.O.F K.K.P.$.; Z x.[.a G.( 8 m+m+=           B i.X # a..                         ",
"                        h+c.v.I.m+B.P 6.V @ a.% * _.J.,+V r.$.$.X.e ! |.< x.<+P m+B.{       =.&.t # |.|.(                       ",
"                        h+, %+a ).m+m+P V @.a.$ & ,+_.3.,+_.e.h+t+h+h+s+t+6 <+H 6.m+$ I     ; w  ._ [ a.k.                      ",
"                    l u+e.3.Y t.%+v.B.v t+@ a.| & =+,+3.C /.e.e.e.e.h+e.h+q.<+<+<+v.B.a.N   '+d w t $ } )+'+                    ",
"                    u+2+h+f G C y.y.' m.g.@.n.# | F._._.=+=+=+=+t+h+V h+h+,.<+v.2+x.6.|.|.P :.! S (.% [ } N                     ",
"                  }.P ..s+E f q.t.f E >.t+n a.: | I.).e._.s+e.=+e.e.h+e.h+,.9+<+v.<+a k.a.J H - A u % @.j.#.                    ",
"                  L P |.;+E G E P 4.E W >._ a.: | I.I.I.~ r.s+s+s+s+e.s+t+j 9+<+2+2+H ~ a.J x.7 y u % U.&+1+{                   ",
"              [.v+^ h J m+q.,.E m+' q.V d+% a.| @ 6.).B.m+: O X.V.V.H.H.O.k :.<+2+<+x.k.n.~ H ^ i  .# &+-.!+{                   ",
"            u+( I I p+6.m+).d.E s 5.f >.T # } : _ ' %+j c o.a.@ O  + + +V.8.a :.:+l.8 $ |.h ,.w+) X | * 8.% I                   ",
"      }.<.  I #.I !.( w+9 B.8 u.1 ,., =+u e+} # . _.4 g >+8 ..a.~ = x+`.W.P.P.H /+).o.[ = _.7+y+; .+r &+z.e+#.                  "};
