/* XPM */
static char * C:\Saturn\__repo\ss_save_parser\new_xpm[] = {
"47 64 95 2",
"  	c None",
". 	c #0F0F0F",
"+ 	c #2D2D2D",
"@ 	c #363636",
"# 	c #323232",
"$ 	c #313131",
"% 	c #303030",
"& 	c #2F2F2F",
"* 	c #2E2E2E",
"= 	c #2C2C2C",
"- 	c #2B2B2B",
"; 	c #2A2A2A",
"> 	c #282828",
", 	c #272727",
"' 	c #262626",
") 	c #252525",
"! 	c #242424",
"~ 	c #232323",
"{ 	c #1A1A1A",
"] 	c #0E0E0E",
"^ 	c #6E6E6E",
"/ 	c #636363",
"( 	c #4B4B4B",
"_ 	c #464646",
": 	c #454545",
"< 	c #444444",
"[ 	c #434343",
"} 	c #424242",
"| 	c #404040",
"1 	c #3F3F3F",
"2 	c #3E3E3E",
"3 	c #3C3C3C",
"4 	c #3A3A3A",
"5 	c #383838",
"6 	c #343434",
"7 	c #101010",
"8 	c #646464",
"9 	c #131313",
"0 	c #333333",
"a 	c #353535",
"b 	c #575757",
"c 	c #FFFFFF",
"d 	c #1E1E1E",
"e 	c #292929",
"f 	c #222222",
"g 	c #545454",
"h 	c #171717",
"i 	c #1F1F1F",
"j 	c #151515",
"k 	c #0D0D0D",
"l 	c #1C1C1C",
"m 	c #0C0C0C",
"n 	c #555555",
"o 	c #141414",
"p 	c #191919",
"q 	c #161616",
"r 	c #0A0A0A",
"s 	c #121212",
"t 	c #0B0B0B",
"u 	c #080808",
"v 	c #202020",
"w 	c #111111",
"x 	c #090909",
"y 	c #070707",
"z 	c #535353",
"A 	c #1D1D1D",
"B 	c #060606",
"C 	c #525252",
"D 	c #1B1B1B",
"E 	c #515151",
"F 	c #010101",
"G 	c #4F4F4F",
"H 	c #181818",
"I 	c #000000",
"J 	c #212121",
"K 	c #4E4E4E",
"L 	c #4A4A4A",
"M 	c #020202",
"N 	c #484848",
"O 	c #393939",
"P 	c #373737",
"Q 	c #A5A5A5",
"R 	c #F2F2F2",
"S 	c #939393",
"T 	c #B6B6B6",
"U 	c #CECECE",
"V 	c #9E9E9E",
"W 	c #666666",
"X 	c #DADADA",
"Y 	c #9C9C9C",
"Z 	c #D4E3FF",
"` 	c #C2C2C2",
" .	c #E6E6E6",
"..	c #050505",
"+.	c #AAAAAA",
". + @ # # # # # # # # # $ % & * * + = - ; > , ' ) ! ~ ~ ! { ]                                 ",
"~ ^ / ( _ _ _ _ _ _ : < < [ } | 1 2 3 3 4 5 @ 6 # $ $ 4 1 2 ; 7                               ",
") 8 ,                                                 9 0 5 a ' .                             ",
"~ b . c c c c c c c c c c c c c c c c c c c c c c c c   + ; d e f ]                           ",
"~ g . c c c c c c c c c c c c c c c c c c c c c c c c   ; h   . ~ i ]                         ",
"~ g ] c c c c c c c c c c c c c c c c c c c c c c c c   > j     k d l m                       ",
"~ n ] c c c c c c c c c c c c c c c c c c c c c c c c   ' o   c   k p p m                     ",
"~ n ] c c c c c c c c c c c c c c c c c c c c c c c c   ! 9   c c   m h q r                   ",
"~ n ] c c c c c c c c c c c c c c c c c c c c c c c c   f s   c c c   t o 9 u                 ",
"~ n ] c c c c c c c c c c c c c c c c c c c c c c c c   v w   c c c c   r 9 s u               ",
"~ g ] c c c c c c c c c c c c c c c c c c c c c c c c   i 7   c c c c c   x o s y             ",
"~ z ] c c c c c c c c c c c c c c c c c c c c c c c c   A .   c c c c c c   u o s B           ",
"~ C ] c c c c c c c c c c c c c c c c c c c c c c c c   D ]   c c c c c c c   u o w B         ",
"f E k c c c c c c c c c c c c c c c c c c c c c c c c   p ]   c c c c c c c c   u s x F       ",
"f G ] c c c c c c c c c c c c c c c c c c c c c c c c   H k   c c c c c c c c c   I I I I     ",
"J K . c c c c c c c c c c c c c c c c c c c c c c c c   q m   c c c c c c c c c c   I I I I   ",
"v ( ] c c c c c c c c c c c c c c c c c c c c c c c c   j 7                           I I I I ",
"v L k c c c c c c c c c c c c c c c c c c c c c c c c   9 q . B M F I I I I I I I I I I I I I ",
"v N k c c c c c c c c c c c c c c c c c c c c c c c c   r m y M I I I I I I I I I I I I I I I ",
"d : k c c c c c c c c c c c c c c c c c c c c c c c c                                   I I I ",
"A [ m c c c c c c c c c c c c c c c c c c c c c c c c c c c c c c c c c c c c c c c c c   I I ",
"l | t c c c c c c c c c c c c c c c c c c c c c c c c c c c c c c c c c c c c c c c c c   I I ",
"l 2 t c c c c c c c c c c c c c c c c c c c c c c c c c c c c c c c c c c c c c c c c c   I I ",
"D 3 m c c c c c c c c c c c c c c c c c c c c c c c c c c c c c c c c c c c c c c c c c   I I ",
"{ O t c c c c c c c c c c c c c c c c c c c c c c c c c c c c c c c c c c c c c c c c c   I I ",
"p P t c c c c c c c c c c c c c c c c c c c c c c c c c c c c c c c c c c c c c c c c c   I I ",
"p 6 r c c c c c c c c c c c c c c c c c c c c c c c c c c c c c c c c c c c c c c c c c   I I ",
"H $ r c c c c c c c L L L L L L L L L L L L L L L L L L L L L L L L L L L Q c c c c c c   I I ",
"h * r c c c c c c L R R R R R R R R R R R R R R R R R R R R R R R R R R R ' S c c c c c   I I ",
"q = r c c c c c c L T U U U U U U U U U U U U U U U U U U U U U U U U U V ' W Q c c c c   I I ",
"j ; x c c c c c c L R R U U U U U U U U U U U U U U U U U U U U U X U R R ' g Y c c c c   I I ",
"o , x c c c c c c L T T R U Z Z Z Z Z Z Z Z Z Z Z Z Z Z Z Z Z Z Z ` R T T ' g Y c c c c   I I ",
"o ) u c c c c c c L R R U U Z Z Z Z Z Z Z Z Z Z Z Z Z Z Z Z Z Z Z ` X R R ' g Y c c c c   I I ",
"9 ~ u c c c c c c L T T R U R  . . . . . . . . . . . . . . . . .R ` R T T ' g Y c c c c   I I ",
"s J u c c c c c c L R R U U R R R R R R R R R R R R R R R R R R R ` X R R ' g Y c c c c   I I ",
"w i y c c c c c c L T T R U R  . . . . . . . . . . . . . . . . .R ` R T T ' g Y c c c c   I I ",
"7 A y c c c c c c L X ` U U R R R R R R R R R R R R R R R R R R R ` U U V ' g Y c c c c   I I ",
". D y c c c c c c L X ` U U R  . . . . . . . . . . . . . . . . .R ` U U V ' g Y c c c c   I I ",
"] p y c c c c c c L X ` U U R R R R R R R R R R R R R R R R R R R ` U U V ' g Y c c c c   I I ",
"] o M c c c c c c L X ` U U R  . . . . . . . . . . . . . . . . .R ` U U V ' g Y c c c c   I I ",
"r ..I c c c c c c L X ` U U R R R R R R R R R R R R R R R R R R R ` U U V ' g Y c c c c   I I ",
"M I I c c c c c c L X ` U ` ` ` ` ` ` ` ` ` ` ` ` ` ` ` ` ` ` ` ` ` U U V ' g Y c c c c   I I ",
"I I I c c c c c c L X ` U U U U U U U U U U U U U U U U U U U U U U U U V ' g Y c c c c   I I ",
"I I I c c c c c c L X ` U U U U U U U U U +.R +.R +.R U U U U U U U U U V ' g Y c c c c   I I ",
"I I I c c c c c c L X ` U U U U U U U U +.R +.R +.R U U U U U U U U U U V ' g Y c c c c   I I ",
"I I I c c c c c c L X ` U U U U U U U U U U U U U U U U U U U U U U U U V ' g Y c c c c   I I ",
"I I I c c c c c c L X ` ` ` ` ` ` ` ` ` ` ` ` ` ` ` ` ` ` ` ` ` ` ` ` ` V ' g Y c c c c   I I ",
"I I I c c c c c c Q ' ' ' ' ' ' ' ' ' ' ' ' ' ' ' ' ' ' ' ' ' ' ' ' ' ' ' 5 W Q c c c c   I I ",
"I I I c c c c c c c S W g g g g g g g g g g g g g g g g g g g g g g g g g W S c c c c c   I I ",
"I I I c c c c c c c c Q Y Y Y Y Y Y Y Y Y Y Y Y Y Y Y Y Y Y Y Y Y Y Y Y Y Q c c c c c c   I I ",
"I I I c c c c c c c c c c c c c c c c c c c c c c c c c c c c c c c c c c c c c c c c c   I I ",
"I I I c c c c c c c c c c c c c c c c c c c c c c c c c c c c c c c c c c c c c c c c c   I I ",
"I I I c c c c c c c c c c c c c c c c c c c c c c c c c c c c c c c c c c c c c c c c c   I I ",
"I I I c c c c c c c c c c c c c c c c c c c c c c c c c c c c c c c c c c c c c c c c c   I I ",
"I I I c c c c c c c c c c c c c c c c c c c c c c c c c c c c c c c c c c c c c c c c c   I I ",
"I I I c c c c c c c c c c c c c c c c c c c c c c c c c c c c c c c c c c c c c c c c c   I I ",
"I I I c c c c c c c c c c c c c c c c c c c c c c c c c c c c c c c c c c c c c c c c c   I I ",
"I I I c c c c c c c c c c c c c c c c c c c c c c c c c c c c c c c c c c c c c c c c c   I I ",
"I I I c c c c c c c c c c c c c c c c c c c c c c c c c c c c c c c c c c c c c c c c c   I I ",
"I I I c c c c c c c c c c c c c c c c c c c c c c c c c c c c c c c c c c c c c c c c c   I I ",
"I I I c c c c c c c c c c c c c c c c c c c c c c c c c c c c c c c c c c c c c c c c c   I I ",
"I I I                                                                                   I I I ",
"I I I I I I I I I I I I I I I I I I I I I I I I I I I I I I I I I I I I I I I I I I I I I I I ",
"I I I I I I I I I I I I I I I I I I I I I I I I I I I I I I I I I I I I I I I I I I I I I I I "};
