/* XPM */
static char * C:\Saturn\__repo\ss_save_parser\open_xpm[] = {
"64 48 163 2",
"  	c None",
". 	c #2A2A2A",
"+ 	c #2C2C2C",
"@ 	c #292929",
"# 	c #24262A",
"$ 	c #202329",
"% 	c #2D2D2C",
"& 	c #272727",
"* 	c #D4A756",
"= 	c #FEC561",
"- 	c #FDC561",
"; 	c #DCAD59",
"> 	c #28292B",
", 	c #F1BC5E",
"' 	c #F2BD5E",
") 	c #A0814A",
"! 	c #2B2B2B",
"~ 	c #F9C260",
"{ 	c #564B37",
"] 	c #282828",
"^ 	c #E7B55C",
"/ 	c #2A2B2C",
"( 	c #AC894D",
"_ 	c #26282A",
": 	c #F8C160",
"< 	c #866F43",
"[ 	c #22252A",
"} 	c #F4BE5F",
"| 	c #F0BC5E",
"1 	c #D8AA58",
"2 	c #D9AA58",
"3 	c #DAAB58",
"4 	c #A4844B",
"5 	c #27292B",
"6 	c #F5BF5F",
"7 	c #212429",
"8 	c #FCC461",
"9 	c #FFC762",
"0 	c #F7C060",
"a 	c #997C48",
"b 	c #2E2D2C",
"c 	c #1F2329",
"d 	c #262626",
"e 	c #A7864B",
"f 	c #26272A",
"g 	c #1F2228",
"h 	c #FBC360",
"i 	c #38352F",
"j 	c #27282B",
"k 	c #B69451",
"l 	c #FFD669",
"m 	c #FFD569",
"n 	c #B79552",
"o 	c #C09851",
"p 	c #26282B",
"q 	c #3D3930",
"r 	c #FFD368",
"s 	c #FFCB65",
"t 	c #1F2229",
"u 	c #68583B",
"v 	c #2B2B2C",
"w 	c #9C804A",
"x 	c #FFCC65",
"y 	c #BD9954",
"z 	c #ECB95D",
"A 	c #F7C563",
"B 	c #4A4A4A",
"C 	c #A5A5A5",
"D 	c #FFD067",
"E 	c #5B4F38",
"F 	c #987B48",
"G 	c #68593C",
"H 	c #FFCF66",
"I 	c #F2F2F2",
"J 	c #939393",
"K 	c #E9BB5F",
"L 	c #FBC361",
"M 	c #403B31",
"N 	c #C6A056",
"O 	c #B6B6B6",
"P 	c #CECECE",
"Q 	c #9E9E9E",
"R 	c #666666",
"S 	c #FFCD66",
"T 	c #867044",
"U 	c #C99F54",
"V 	c #25272A",
"W 	c #36342F",
"X 	c #DADADA",
"Y 	c #545454",
"Z 	c #9C9C9C",
"` 	c #715E3E",
" .	c #927948",
"..	c #D4E3FF",
"+.	c #C2C2C2",
"@.	c #B19050",
"#.	c #292A2B",
"$.	c #F0C061",
"%.	c #FFD268",
"&.	c #4D4535",
"*.	c #2A2B2B",
"=.	c #5F523A",
"-.	c #E6E6E6",
";.	c #DDB15C",
">.	c #232529",
",.	c #FAC360",
"'.	c #484033",
").	c #BD9953",
"!.	c #7A6641",
"~.	c #D1A556",
"{.	c #23262A",
"].	c #302F2D",
"^.	c #FFD167",
"/.	c #F3BE5F",
"(.	c #796440",
"_.	c #897345",
":.	c #A4874C",
"<.	c #2A2A2B",
"[.	c #E8BA5F",
"}.	c #413C32",
"|.	c #A9874C",
"1.	c #554B37",
"2.	c #D0A758",
"3.	c #514735",
"4.	c #B49251",
"5.	c #FFCE66",
"6.	c #6D5D3D",
"7.	c #222529",
"8.	c #F8C563",
"9.	c #F3BD5E",
"0.	c #816A42",
"a.	c #816C43",
"b.	c #987D49",
"c.	c #2E2E2D",
"d.	c #DFB35D",
"e.	c #37342F",
"f.	c #B18D4E",
"g.	c #4C4435",
"h.	c #AAAAAA",
"i.	c #C39E55",
"j.	c #FFCA63",
"k.	c #594D37",
"l.	c #AB8C4E",
"m.	c #60533A",
"n.	c #EEBA5D",
"o.	c #27282A",
"p.	c #EEBE60",
"q.	c #222429",
"r.	c #967947",
"s.	c #2B2C2C",
"t.	c #786541",
"u.	c #8B7446",
"v.	c #D6AC5A",
"w.	c #383838",
"x.	c #2F2E2D",
"y.	c #433D32",
"z.	c #A2854C",
"A.	c #534A37",
"B.	c #FBC864",
"C.	c #E2B65E",
"D.	c #776540",
"E.	c #FFD86A",
"F.	c #705F3E",
"  . . + + + + + + + + + + + + + + + + + + + + + + + . @                                                                         ",
". + # $ $ $ $ $ $ $ $ $ $ $ $ $ $ $ $ $ $ $ $ $ $ $ # % &                                                                       ",
". # * = - - - - - - - - - - - - - - - - - - - - - = ; > +                                                                       ",
"+ $ = , , , , , , , , , , , , , , , , , , , , , , , ' ) > !                                                                     ",
"+ $ - , , , , , , , , , , , , , , , , , , , , , , , , ~ { + ]                                                                   ",
"+ $ - , , , , , , , , , , , , , , , , , , , , , , , , , ^ / +                                                                   ",
"+ $ - , , , , , , , , , , , , , , , , , , , , , , , , , , ( _ ! ! + + + + + + + + + + + + + + + + + + + + + !                   ",
"+ $ - , , , , , , , , , , , , , , , , , , , , , , , , , , : < [ # # # # # # # # # # # # # # # # # # # # # # > +                 ",
"+ $ - , , , , , , , , , , , , , , , , , , , , , , , , , , , } | 1 2 2 2 2 2 2 2 2 2 2 2 2 2 2 2 2 2 2 2 2 3 4 5 @               ",
"+ $ - , , , , , , , , , , , , , , , , , , , , , , , , , , , , , , , , , , , , , , , , , , , , , , , , , , , 6 7 .               ",
"+ $ - , , , , , , , , , , , , , , , , , , , , , , , , , , , , , , , , , , , , , , , , , , , , , , , , , , , } 7 .               ",
"+ $ - , , , , , , , , , , , , , , , , , , , , , , , , , , , , , , , , , , , , , , , , , , , , , , , , , , , } 7 .               ",
"+ $ - , , , , , , , , , , , , , , , , , , , , , , , , , , , , , , , , , , , , , , , , , , , , , , , , , , , } 7 .               ",
"+ $ - , , , , , , , , , , , , , , , , , , , , , , , , , , , , , , , , , , , , , , , , , , , , , , , , , , , } 7 .               ",
"+ $ - , , , , , , , , , , , , , , , , , , , , , , , , , , , , , , , , , , , , , , , , , , , , , , , , , , , } 7 .               ",
"+ $ - , , , , , , , , , ' 8 - - - - - - - - - - - - - - - - - - - - - - - - - - - - - - - - - - - - - - - - 9 $ .               ",
"+ $ - , , , , , , , , 0 a b c $ $ $ $ $ $ $ $ $ $ $ $ $ $ $ $ $ $ $ $ $ $ $ $ $ $ $ $ $ $ $ $ $ $ $ $ $ $ $ $ % + + + + + . d   ",
"+ $ - , , , , , , , , e f _ g g g g g g g g g g g g g g g g g g g g g g g g g g g g g g g g g g g g g g g g g g g g g g g _ %   ",
"+ $ - , , , , , , , h i j k l m m m m m m m m m m m m m m m m m m m m m m m m m m m m m m m m m m m m m m m m m m m m m l n 5 . ",
"+ $ - , , , , , , , o p q r s s s s s s s s s s s s s s s s s s s s s s s s s s s s s s s s s s s s s s s s s s s s s s s r t + ",
"+ $ - , , , , , , 6 u v w x s s s s s s s s s s s s s s s s s s s s s s s s s s s s s s s s s s s s s s s s s s s s s s s y > @ ",
"+ $ - , , , , , , z # [ A s s s s s B B B B B B B B B B B B B B B B B B B B B B B B B B B C s s s s s s s s s s s s s s D E +   ",
"+ $ - , , , , , , F v G H s s s s B I I I I I I I I I I I I I I I I I I I I I I I I I I I d J s s s s s s s s s s s s s K 7 !   ",
"+ $ - , , , , , L M _ N s s s s s B O P P P P P P P P P P P P P P P P P P P P P P P P P Q d R C s s s s s s s s s s s S T + @   ",
"+ $ - , , , , , U V W r s s s s s B I I P P P P P P P P P P P P P P P P P P P P P X P I I d Y Z s s s s s s s s s s s H + +     ",
"+ $ - , , , , } ` v  .x s s s s s B O O I P ......................................+.I O O d Y Z s s s s s s s s s s s @.#.@     ",
"+ $ - , , , , , _ 7 $.s s s s s s B I I P P ......................................+.X I I d Y Z s s s s s s s s s s %.&.+       ",
"+ $ - , , , , ) *.=.D s s s s s s B O O I P I -.-.-.-.-.-.-.-.-.-.-.-.-.-.-.-.-.I +.I O O d Y Z s s s s s s s s s s ;.>.!       ",
"+ $ - , , , ,.'.> ).s s s s s s s B I I P P I I I I I I I I I I I I I I I I I I I +.X I I d Y Z s s s s s s s s s S !.+ ]       ",
"+ $ - , , , ~.{.].^.s s s s s s s B O O I P I -.-.-.-.-.-.-.-.-.-.-.-.-.-.-.-.-.I +.I O O d Y Z s s s s s s s s s s j +         ",
"+ $ - , , /.(.+ _.x s s s s s s s B X +.P P I I I I I I I I I I I I I I I I I I I +.P P Q d Y Z s s s s s s s s s :.<.@         ",
"+ $ - , , 6 <.7 [.s s s s s s s s B X +.P P I -.-.-.-.-.-.-.-.-.-.-.-.-.-.-.-.-.I +.P P Q d Y Z s s s s s s s s r }.+           ",
"+ $ - , , |.#.1.^.s s s s s s s s B X +.P P I I I I I I I I I I I I I I I I I I I +.P P Q d Y Z s s s s s s s s 2.V !           ",
"+ $ - , ~ 3.#.4.s s s s s s s s s B X +.P P I -.-.-.-.-.-.-.-.-.-.-.-.-.-.-.-.-.I +.P P Q d Y Z s s s s s s s 5.6.+ ]           ",
"+ $ - , 3 7.v H s s s s s s s s s B X +.P P I I I I I I I I I I I I I I I I I I I +.P P Q d Y Z s s s s s s s 8.>.!             ",
"+ $ - 9.0.+ a.S s s s s s s s s s B X +.P +.+.+.+.+.+.+.+.+.+.+.+.+.+.+.+.+.+.+.+.+.P P Q d Y Z s s s s s s x b.v .             ",
"+ $ - : c.7.d.s s s s s s s s s s B X +.P P P P P P P P P P P P P P P P P P P P P P P P Q d Y Z s s s s s s %.e.+               ",
"+ $ - f.> g.%.s s s s s s s s s s B X +.P P P P P P P P P h.I h.I h.I P P P P P P P P P Q d Y Z s s s s s s i.j .               ",
"+ $ j.k.<.l.s s s s s s s s s s s B X +.P P P P P P P P h.I h.I h.I P P P P P P P P P P Q d Y Z s s s s s D m.+                 ",
"+ $ n.7.o.x s s s s s s s s s s s B X +.P P P P P P P P P P P P P P P P P P P P P P P P Q d Y Z s s s s s p.q..                 ",
"+ 7 r.s.t.S s s s s s s s s s s s B X +.+.+.+.+.+.+.+.+.+.+.+.+.+.+.+.+.+.+.+.+.+.+.+.+.Q d Y Z s s s s x u.+ .                 ",
"+ <.M # v.s s s s s s s s s s s s C d d d d d d d d d d d d d d d d d d d d d d d d d d d w.R C s s s s ^.x.+                   ",
"+ + + y.r s s s s s s s s s s s s s J R Y Y Y Y Y Y Y Y Y Y Y Y Y Y Y Y Y Y Y Y Y Y Y Y Y R J s s s s s k > @                   ",
"+ + / z.s s s s s s s s s s s s s s s C Z Z Z Z Z Z Z Z Z Z Z Z Z Z Z Z Z Z Z Z Z Z Z Z Z C s s s s s ^.A.+                     ",
"+ + # B.s s s s s s s s s s s s s s s s s s s s s s s s s s s s s s s s s s s s s s s s s s s s s s s C.q.!                     ",
"+ + D.E.m m m m m m m m m m m m m m m m m m m m m m m m m m m m m m m m m m m m m m m m m m m m m m m F.+ &                     ",
"+ + _ g g g g g g g g g g g g g g g g g g g g g g g g g g g g g g g g g g g g g g g g g g g g g g g g *.!                       ",
"+ + + + + + + + + + + + + + + + + + + + + + + + + + + + + + + + + + + + + + + + + + + + + + + + + + + @                         "};
