/* XPM */
static char * C:\Saturn\__repo\ss_save_parser\save_xpm[] = {
"64 64 668 2",
"  	c None",
". 	c #C9C9C9",
"+ 	c #888786",
"@ 	c #757473",
"# 	c #757474",
"$ 	c #757476",
"% 	c #767473",
"& 	c #737372",
"* 	c #6E6E6E",
"= 	c #696969",
"- 	c #6B6B6B",
"; 	c #6C6C6C",
"> 	c #6D6D6D",
", 	c #6A6A6A",
"' 	c #747473",
") 	c #777674",
"! 	c #706F6D",
"~ 	c #999999",
"{ 	c #62696E",
"] 	c #473F3B",
"^ 	c #2D4E69",
"/ 	c #2D5B81",
"( 	c #2B5C84",
"_ 	c #2B5C85",
": 	c #2B5B87",
"< 	c #2B5A84",
"[ 	c #3B4957",
"} 	c #4E4E4D",
"| 	c #818181",
"1 	c #828282",
"2 	c #808080",
"3 	c #7F7F7F",
"4 	c #7E7E7E",
"5 	c #7D7D7D",
"6 	c #717171",
"7 	c #434343",
"8 	c #424242",
"9 	c #414141",
"0 	c #404040",
"a 	c #5A5B5A",
"b 	c #7C7C7D",
"c 	c #7C7D7C",
"d 	c #807F80",
"e 	c #474645",
"f 	c #394C67",
"g 	c #295E86",
"h 	c #275A82",
"i 	c #2D587B",
"j 	c #414142",
"k 	c #837F7B",
"l 	c #BDBEBE",
"m 	c #46403B",
"n 	c #1F72B5",
"o 	c #058CFA",
"p 	c #0290FF",
"q 	c #028FFF",
"r 	c #028EFF",
"s 	c #2A608C",
"t 	c #646260",
"u 	c #FFFFFF",
"v 	c #D3D3D3",
"w 	c #383838",
"x 	c #8D8E8E",
"y 	c #FCFEFD",
"z 	c #F2F3F3",
"A 	c #4B4A49",
"B 	c #2269AC",
"C 	c #0094FF",
"D 	c #058FFA",
"E 	c #0093FF",
"F 	c #1B71B8",
"G 	c #363A42",
"H 	c #837B77",
"I 	c #6F6E6D",
"J 	c #335C7D",
"K 	c #008EFF",
"L 	c #0C8AF1",
"M 	c #038CFB",
"N 	c #038CFA",
"O 	c #038BFC",
"P 	c #038BFD",
"Q 	c #028AFA",
"R 	c #038AF9",
"S 	c #2C5E89",
"T 	c #615F5D",
"U 	c #F8F8F8",
"V 	c #FDFDFD",
"W 	c #FEFEFE",
"X 	c #FCFCFC",
"Y 	c #FBFBFB",
"Z 	c #FAFAFA",
"` 	c #F9F9F9",
" .	c #CECECE",
"..	c #878988",
"+.	c #F3F5F4",
"@.	c #EAEBEA",
"#.	c #4C4A48",
"$.	c #2964A0",
"%.	c #0090FD",
"&.	c #008DFC",
"*.	c #088BF6",
"=.	c #018BFB",
"-.	c #1870BE",
";.	c #383E45",
">.	c #81807B",
",.	c #5D5A56",
"'.	c #2369A3",
").	c #0090FF",
"!.	c #008DFE",
"~.	c #008DFF",
"{.	c #018DFD",
"].	c #028BFA",
"^.	c #2B5F88",
"/.	c #F9F9FA",
"(.	c #F7F7F7",
"_.	c #CCCCCC",
":.	c #393939",
"<.	c #40403F",
"[.	c #8B8D8C",
"}.	c #F1F3F2",
"|.	c #ECEEED",
"1.	c #F8F9F9",
"2.	c #494846",
"3.	c #2067A6",
"4.	c #028CFE",
"5.	c #018DFF",
"6.	c #0490FF",
"7.	c #1975C0",
"8.	c #3F3834",
"9.	c #7E807E",
"0.	c #236AA6",
"a.	c #008EFE",
"b.	c #038BFA",
"c.	c #2C5F87",
"d.	c #615F5C",
"e.	c #FAFBFB",
"f.	c #FEFDFF",
"g.	c #F6F6F6",
"h.	c #CBCBCB",
"i.	c #8C8E8D",
"j.	c #F0F2F1",
"k.	c #F8FAF9",
"l.	c #1F68A5",
"m.	c #028CFF",
"n.	c #028AF8",
"o.	c #018EFC",
"p.	c #1E72B3",
"q.	c #3A3D40",
"r.	c #808180",
"s.	c #236AA5",
"t.	c #0091FF",
"u.	c #028BFB",
"v.	c #2C5F89",
"w.	c #FAFBFC",
"x.	c #FEFDFE",
"y.	c #F5F5F5",
"z.	c #1F68A4",
"A.	c #028DFE",
"B.	c #018EFD",
"C.	c #018FFD",
"D.	c #058EF8",
"E.	c #1879C1",
"F.	c #4D3F31",
"G.	c #7B7E82",
"H.	c #236BA6",
"I.	c #018FFC",
"J.	c #028DFB",
"K.	c #2B608B",
"L.	c #615F5E",
"M.	c #1F69A3",
"N.	c #028DFD",
"O.	c #0290FB",
"P.	c #1675BC",
"Q.	c #3B3C3C",
"R.	c #828384",
"S.	c #0190FC",
"T.	c #038EFC",
"U.	c #2C618B",
"V.	c #F4F4F4",
"W.	c #F3F3F3",
"X.	c #008EFD",
"Y.	c #0492FB",
"Z.	c #058DF6",
"`.	c #306287",
" +	c #424A50",
".+	c #008FFF",
"++	c #0190FD",
"@+	c #0491FC",
"#+	c #2A6087",
"$+	c #605E5D",
"%+	c #F3F4F4",
"&+	c #F2F4F3",
"*+	c #C8C8C8",
"=+	c #1F6AA4",
"-+	c #0092FF",
";+	c #028FFE",
">+	c #018FFE",
",+	c #286598",
"'+	c #484A4B",
")+	c #0492FC",
"!+	c #2A6086",
"~+	c #296699",
"{+	c #494947",
"]+	c #246BA6",
"^+	c #0190FF",
"/+	c #0191FD",
"(+	c #0491FB",
"_+	c #2A5F87",
":+	c #F2F3F2",
"<+	c #0390FF",
"[+	c #0191FF",
"}+	c #246CA6",
"|+	c #0091FE",
"1+	c #0192FF",
"2+	c #0292FC",
"3+	c #0390FB",
"4+	c #295E88",
"5+	c #F4F5F4",
"6+	c #EFF1F0",
"7+	c #F1F2F1",
"8+	c #C6C6C6",
"9+	c #206BA5",
"0+	c #0491FF",
"a+	c #2A6699",
"b+	c #EEF0EF",
"c+	c #206AA5",
"d+	c #494A47",
"e+	c #0095FF",
"f+	c #0193FF",
"g+	c #0192FC",
"h+	c #2A6089",
"i+	c #EDEFEE",
"j+	c #EFF0EF",
"k+	c #C3C3C3",
"l+	c #3F3F3F",
"m+	c #888A89",
"n+	c #0391FF",
"o+	c #296797",
"p+	c #4B4845",
"q+	c #0493FC",
"r+	c #605E5C",
"s+	c #EBEDEC",
"t+	c #E5E5E5",
"u+	c #515151",
"v+	c #505050",
"w+	c #B1B3B2",
"x+	c #4B4844",
"y+	c #0493FB",
"z+	c #2A6189",
"A+	c #ECECEC",
"B+	c #EBECEB",
"C+	c #EAEAEA",
"D+	c #EAEBEB",
"E+	c #EAECEB",
"F+	c #F9FBFA",
"G+	c #1F6BA5",
"H+	c #0392FE",
"I+	c #286797",
"J+	c #5E5A57",
"K+	c #256DA6",
"L+	c #0096FF",
"M+	c #0293FC",
"N+	c #296089",
"O+	c #5E5C5B",
"P+	c #F1F2F2",
"Q+	c #FAFCFB",
"R+	c #1D6CA5",
"S+	c #0493FE",
"T+	c #286696",
"U+	c #4C4945",
"V+	c #0294FD",
"W+	c #296088",
"X+	c #F8F9F8",
"Y+	c #F1F1F1",
"Z+	c #ECEFED",
"`+	c #474744",
" @	c #1E6CA5",
".@	c #5B5955",
"+@	c #246FA8",
"@@	c #0097FF",
"#@	c #0295FF",
"$@	c #0294FF",
"%@	c #0295FE",
"&@	c #0194FE",
"*@	c #2172AA",
"=@	c #4B4745",
"-@	c #CFD1D2",
";@	c #FCFEFF",
">@	c #FCFFFF",
",@	c #FBFEFF",
"'@	c #FAFDFF",
")@	c #FAFBFF",
"!@	c #F9FAFE",
"~@	c #F8FAFD",
"{@	c #F8F8FC",
"]@	c #F7F8FC",
"^@	c #F5F6F9",
"/@	c #F4F5F8",
"(@	c #F3F4F8",
"_@	c #F1F3F6",
":@	c #F2F3F6",
"<@	c #EEF1F5",
"[@	c #EDF1F3",
"}@	c #ECF0F3",
"|@	c #EBEEF1",
"1@	c #EBEFF1",
"2@	c #EAEFF1",
"3@	c #E9EFF1",
"4@	c #EBEFF2",
"5@	c #EBEDEB",
"6@	c #C1C3C1",
"7@	c #413E3D",
"8@	c #1E76B6",
"9@	c #0293FE",
"0@	c #276796",
"a@	c #4D4945",
"b@	c #5A5955",
"c@	c #2470A8",
"d@	c #0098FF",
"e@	c #0297FC",
"f@	c #0A94F4",
"g@	c #385162",
"h@	c #414140",
"i@	c #3B3A38",
"j@	c #3F3934",
"k@	c #3E3833",
"l@	c #3D3732",
"m@	c #3C3631",
"n@	c #3E3933",
"o@	c #3F3A34",
"p@	c #3D3933",
"q@	c #3C3933",
"r@	c #3F3933",
"s@	c #30383E",
"t@	c #44433E",
"u@	c #2B506A",
"v@	c #0794F5",
"w@	c #0695F7",
"x@	c #0195FF",
"y@	c #0196FF",
"z@	c #0197FF",
"A@	c #0396FF",
"B@	c #0196FE",
"C@	c #0893F6",
"D@	c #177AC0",
"E@	c #216FA5",
"F@	c #1E70AA",
"G@	c #1F71AB",
"H@	c #1F71AA",
"I@	c #2070AA",
"J@	c #2070AB",
"K@	c #2170AB",
"L@	c #226FAA",
"M@	c #1B79BC",
"N@	c #0691F4",
"O@	c #0296FD",
"P@	c #0096FC",
"Q@	c #0496FF",
"R@	c #276896",
"S@	c #276997",
"T@	c #5B5A56",
"U@	c #236FA7",
"V@	c #0099FF",
"W@	c #2B6797",
"X@	c #484B45",
"Y@	c #5C5B57",
"Z@	c #236FA6",
"`@	c #2C6697",
" #	c #464C45",
".#	c #2370A6",
"+#	c #009AFF",
"@#	c #2371A6",
"##	c #009DFF",
"$#	c #0099FD",
"%#	c #2C6797",
"&#	c #049AFF",
"*#	c #0199FB",
"=#	c #0199FE",
"-#	c #019AFE",
";#	c #0298FE",
">#	c #0299FF",
",#	c #019AFF",
"'#	c #2C6794",
")#	c #464C46",
"!#	c #009AFE",
"~#	c #009CFF",
"{#	c #079FF7",
"]#	c #009BFF",
"^#	c #0199FC",
"/#	c #0099F9",
"(#	c #009BFE",
"_#	c #2C6894",
":#	c #5C5A56",
"<#	c #2371A7",
"[#	c #0198F9",
"}#	c #148FE3",
"|#	c #315D7B",
"1#	c #2E5C79",
"2#	c #2E5D79",
"3#	c #2D5C78",
"4#	c #305C7C",
"5#	c #138BDA",
"6#	c #029BFD",
"7#	c #029BFE",
"8#	c #5D5855",
"9#	c #2373A8",
"0#	c #009EFF",
"a#	c #019CFC",
"b#	c #207CBA",
"c#	c #433D39",
"d#	c #656565",
"e#	c #606060",
"f#	c #616161",
"g#	c #5B5B5B",
"h#	c #1E77B3",
"i#	c #029DFD",
"j#	c #47423D",
"k#	c #474846",
"l#	c #2373A7",
"m#	c #009FFF",
"n#	c #019DFC",
"o#	c #1F7BBA",
"p#	c #46403C",
"q#	c #444342",
"r#	c #1C76B3",
"s#	c #019DFD",
"t#	c #474C47",
"u#	c #2374A8",
"v#	c #009DFE",
"w#	c #029CFD",
"x#	c #1F7BB9",
"y#	c #EDEDED",
"z#	c #444243",
"A#	c #1B77B3",
"B#	c #019CFF",
"C#	c #2D6995",
"D#	c #474D47",
"E#	c #2374A7",
"F#	c #00A0FF",
"G#	c #4A4A4A",
"H#	c #A5A5A5",
"I#	c #1B77B2",
"J#	c #019FFD",
"K#	c #1F7DBB",
"L#	c #453F3B",
"M#	c #F2F2F2",
"N#	c #262626",
"O#	c #939393",
"P#	c #464443",
"Q#	c #1B77B0",
"R#	c #2C6995",
"S#	c #464B47",
"T#	c #B6B6B6",
"U#	c #9E9E9E",
"V#	c #666666",
"W#	c #00A1FF",
"X#	c #443F3A",
"Y#	c #DADADA",
"Z#	c #545454",
"`#	c #9C9C9C",
" $	c #EBEBEB",
".$	c #474545",
"+$	c #1C78AF",
"@$	c #019EFF",
"#$	c #2C6994",
"$$	c #464C47",
"%$	c #2375A8",
"&$	c #D4E3FF",
"*$	c #C2C2C2",
"=$	c #E9E9E9",
"-$	c #474547",
";$	c #1C79AF",
">$	c #019EFD",
",$	c #2B6994",
"'$	c #454C47",
")$	c #00A2FF",
"!$	c #E8E8E8",
"~$	c #464445",
"{$	c #019FFC",
"]$	c #2475A8",
"^$	c #00A3FF",
"/$	c #02A1FF",
"($	c #01A3FF",
"_$	c #01A1FD",
":$	c #1E7FBA",
"<$	c #E6E6E6",
"[$	c #454245",
"}$	c #1C7AB1",
"|$	c #01A1FC",
"1$	c #2C6A94",
"2$	c #00A5FF",
"3$	c #01A2FF",
"4$	c #01A2FD",
"5$	c #1D7FBA",
"6$	c #443E39",
"7$	c #E7E7E7",
"8$	c #1D7BB2",
"9$	c #01A2FC",
"0$	c #01A1FF",
"a$	c #2376A8",
"b$	c #00A6FF",
"c$	c #01A3FD",
"d$	c #443E3A",
"e$	c #454345",
"f$	c #1E7BB2",
"g$	c #01A3FC",
"h$	c #2B6A95",
"i$	c #03A1FF",
"j$	c #00A7FE",
"k$	c #1784BB",
"l$	c #473E3A",
"m$	c #444244",
"n$	c #2C6B95",
"o$	c #464D46",
"p$	c #04A1FF",
"q$	c #1684BB",
"r$	c #2C6A95",
"s$	c #F0F0F0",
"t$	c #E4E4E4",
"u$	c #1D7CB1",
"v$	c #01A4FC",
"w$	c #2B6C95",
"x$	c #464C48",
"y$	c #2477A8",
"z$	c #00A7FF",
"A$	c #473D3A",
"B$	c #E3E3E3",
"C$	c #434243",
"D$	c #1D7DB0",
"E$	c #02A6FB",
"F$	c #464C49",
"G$	c #F0F1F0",
"H$	c #F3F4F3",
"I$	c #EFEFEF",
"J$	c #434244",
"K$	c #2377A8",
"L$	c #00A8FF",
"M$	c #00A4FE",
"N$	c #03A4FF",
"O$	c #00A9FD",
"P$	c #1785B9",
"Q$	c #483E3A",
"R$	c #AAAAAA",
"S$	c #E2E2E2",
"T$	c #444345",
"U$	c #1C7DB0",
"V$	c #00A4FF",
"W$	c #EFF2F1",
"X$	c #E0E0E0",
"Y$	c #434344",
"Z$	c #00A9FF",
"`$	c #01A5FF",
" %	c #01A6FF",
".%	c #03A5FF",
"+%	c #1785B8",
"@%	c #EFF0F0",
"#%	c #1D7DB1",
"$%	c #02A7FC",
"%%	c #04A5FF",
"&%	c #00AAFE",
"*%	c #1684B8",
"=%	c #463C39",
"-%	c #EEEFEE",
";%	c #EDEEEE",
">%	c #1E7EB2",
",%	c #03A8FC",
"'%	c #473D39",
")%	c #EDEEED",
"!%	c #2379A8",
"~%	c #00ACFF",
"{%	c #00A8FD",
"]%	c #03A7FF",
"^%	c #00ACFD",
"/%	c #1685BB",
"(%	c #ECEDEC",
"_%	c #EEEEEE",
":%	c #DCDEDD",
"<%	c #1F7EB1",
"[%	c #01A7FC",
"}%	c #01A8FF",
"|%	c #2A6D95",
"1%	c #474D4B",
"2%	c #2379A9",
"3%	c #1685BC",
"4%	c #454445",
"5%	c #01A7FB",
"6%	c #2B6D95",
"7%	c #595556",
"8%	c #247BA5",
"9%	c #03ABFF",
"0%	c #04AAFC",
"a%	c #F5F6F6",
"b%	c #EBECEC",
"c%	c #ECEDED",
"d%	c #EBEDED",
"e%	c #EDEDEC",
"f%	c #1E7FB0",
"g%	c #01A9FB",
"h%	c #03A8FE",
"i%	c #296C8F",
"j%	c #484C4E",
"k%	c #6A696B",
"l%	c #32678B",
"m%	c #00AEFF",
"n%	c #05A7FE",
"o%	c #473F3A",
"p%	c #F5F7F6",
"q%	c #EBEEEC",
"r%	c #444444",
"s%	c #1D7FAF",
"t%	c #01ABFB",
"u%	c #00A8FE",
"v%	c #03A8F8",
"w%	c #00A6FD",
"x%	c #30667F",
"y%	c #4E5158",
"z%	c #ACACA9",
"A%	c #404343",
"B%	c #1895D6",
"C%	c #01A8FE",
"D%	c #01ABFC",
"E%	c #04ABFF",
"F%	c #0E99DC",
"G%	c #3F484A",
"H%	c #868B8F",
"I%	c #504B49",
"J%	c #3C4554",
"K%	c #29709B",
"L%	c #1E7BB3",
"M%	c #1D7BB4",
"N%	c #1C7FB6",
"O%	c #1984B4",
"P%	c #226A91",
"Q%	c #45403D",
"R%	c #A9AAA9",
"S%	c #A8A8A8",
"T%	c #A7A8A8",
"U%	c #A7A7A8",
"V%	c #A7A8A7",
"W%	c #A6A7A7",
"X%	c #A7A7A7",
"Y%	c #9D9E9E",
"Z%	c #47413D",
"`%	c #296889",
" &	c #1881B8",
".&	c #1E7CB4",
"+&	c #1F7EB5",
"@&	c #256F97",
"#&	c #3A424B",
"$&	c #605957",
"%&	c #78837C",
"&&	c #49483F",
"*&	c #45473B",
"=&	c #45473A",
"-&	c #46463F",
";&	c #523C30",
">&	c #46433F",
",&	c #464544",
"'&	c #3D3D3D",
")&	c #3E3E3E",
"!&	c #3A3939",
"~&	c #424548",
"{&	c #494338",
"]&	c #4B4039",
"^&	c #45463B",
"/&	c #47453B",
"(&	c #4B4942",
"_&	c #7B837E",
"    . + @ @ # $ $ # % & * = - ; ; ; ; ; ; ; ; ; ; ; ; ; ; - - ; ; ; ; ; ; - ; > * * * * * * * - , - , ; ' @ ) ! ~               ",
"  { ] ^ / ( _ : : < < [ } | 1 2 2 2 2 2 2 2 2 2 2 2 2 2 2 | | 2 3 3 4 3 5 6 7 8 9 9 9 9 9 9 0 a b c d e f g h i j k             ",
"l m n o p p q q q r r s t u u u u u u u u u u u u u u u u u u u u u u u u v w 9 8 8 8 8 8 8 0 x y z u A B C D E F G H           ",
"I J K L M N O P P Q R S T U V W W W W W W W W W W W W W W W V X Y Z ` U Z  .w 8 8 8 8 8 8 8 0 ..+.@.` #.$.%.&.*.=.-.;.>.        ",
",.'.).!.~.~.~.~.~.{.].^.T /.W W W W W W W W W W W W W W W W V X Z ` U (.U _.:.7 8 8 8 8 8 8 <.[.}.|.1.2.3.).4.~.5.6.7.8.9.      ",
",.0.).a.~.~.~.~.~.{.b.c.d.e.f.W W W W W W W W W W W W W W W X Z ` U (.g.(.h.:.7 8 8 8 8 8 8 <.i.j.|.k.2.l.).m.~.~.n.o.p.q.r.    ",
",.s.t.a.K K K K K &.u.v.T w.x.W W W W W W W W W W W W W V V Y Z U (.g.y.g.h.w 7 8 8 8 8 8 8 <.i.j.|.k.2.z.).A.K K B.C.D.E.F.G.  ",
",.H.t.a.a.a.a.a.a.I.J.K.L.Z W W W W W W W W W W W W W V X Y Z ` U g.g.y.g.. w 7 8 8 8 8 8 8 <.i.j.|.k.2.M.t.N.a.a.a.a.&.O.P.Q.R.",
",.H.t.a.a.a.a.a.a.S.T.U.T Z W W W W W W W W W W W W W X Z Z ` U g.y.V.W.V.. w 7 8 8 8 8 8 8 <.i.j.|.k.2.M.t.N.a.a.a.a.X.Y.Z.`. +",
",.H.t..+.+.+.+.+.+++@+#+$+Y W W W W W W W W W W W W X Y Z ` U (.y.V.%+&++.*+:.8 8 8 8 8 8 8 <.i.j.|.k.2.=+-+;+.+.+.+.+>+)..+,+'+",
",.H.t..+.+.+.+.+.+++)+!+$+Y W W W W W W W W W W W X Y Z ` ` (.g.y.W.z }.z *+:.8 8 8 8 8 8 8 <.i.j.|.k.2.=+-+;+.+.+.+.+.+.+.+~+{+",
",.]+-+).).^+^+^+^+/+(+_+$+Y W W W W W W W W u W X Y Z ` U (.g.y.%+:+}.j.}.*+:.8 8 8 8 8 8 8 <.i.j.|.k.2.=+E <+[+^+^+^+^+^+[+~+{+",
",.}+C |+1+1+1+1+1+2+3+4+$+Y W W W W W W W u W V Y Z ` ` (.(.g.5+&+}.j.6+7+8+:.8 8 8 8 8 8 8 <.i.j.|.k.2.9+E 0+1+1+1+1+1+1+1+a+{+",
",.}+C |+1+1+1+1+1+2+3+4+$+Y W W W W W W W W V Y Z ` U (.g.y.V.W.}.6+6+b+6+8+:.8 8 8 8 8 8 8 <.i.j.|.k.2.c+E 0+1+1+1+1+1+1+1+a+d+",
",.}+e+f+1+1+1+1+1+g+Y.h+$+Y W W W W W u W V Y Y ` U (.(.y.5+%+}.j.6+b+i+j+k+:.0 8 8 8 8 8 8 l+m+}.|.k.2.c+E n+-+1+1+1+1+1+1+o+p+",
",.}+e+f+-+-+-+-+-+g+q+h+r+Y W W W W W W V Y Z ` ` (.g.g.V.&+}.j.6+b+i+|.s+t+u+v+u+u+u+u+u+u+v+w++.s+k.2.c+E n+-+-+-+-+-+-+-+o+x+",
",.}+e+f+f+f+f+f+f+g+y+z+r+Z W W W u W V X Y ` U (.g.y.y.W.:+j.6+b+i+|.s+s+A+B+C+D+D+D+D+D+D+D+|.E+E+F+2.G+e+H+f+f+f+f+f+f+f+I+p+",
"J+K+L+-+f+f+f+f+f+M+3+N+O+Z W W u W V X X Z ` (.(.g.y.V.W.P+6+b+b+|.|.s+s+s+s+s+s+s+s+s+s+s+s+s+s+|.Q+{+R+L+S+f+f+f+f+f+f+f+T+U+",
"J+K+L+-+f+f+f+f+f+V+)+W+O+Z W W W V Y Y Z X+(.g.y.V.W.W.Y+6+b+Z+|.s+s+s+s+s+s+s+s+s+s+s+s+s+s+s+s+s+k.`+ @L+S+f+f+f+f+f+f+f+T+U+",
".@+@@@e+#@$@$@$@$@%@&@*@=@-@;@>@,@'@'@)@!@~@{@]@^@/@(@_@:@<@[@}@|@1@2@3@3@3@3@3@3@3@3@3@3@3@3@|@4@5@6@7@8@@@9@#@$@$@$@$@$@#@0@a@",
"b@c@d@L+#@#@#@#@#@e@d@f@g@h@i@j@j@j@j@k@l@l@m@m@j@j@j@k@k@n@o@o@n@n@p@q@q@q@q@q@q@q@q@q@q@q@q@n@r@s@t@u@v@w@x@#@#@#@#@#@#@#@0@a@",
"b@c@d@L+y@y@y@y@y@z@A@B@C@D@E@F@F@G@G@H@H@H@H@H@G@G@G@G@G@I@J@J@K@K@J@J@J@J@J@J@J@J@J@J@J@J@J@J@J@L@M@N@O@P@Q@y@y@y@y@y@y@y@R@a@",
"b@c@d@L+L+L+L+L+L+L+L+L+L+L+L+L+L+L+L+L+L+L+L+L+L+L+L+L+L+L+L+L+L+L+L+L+L+L+L+L+L+L+L+L+L+L+L+L+L+L+L+L+L+L+L+L+L+L+L+L+L+L+S@a@",
"b@c@d@L+L+L+L+L+L+L+L+L+L+L+L+L+L+L+L+L+L+L+L+L+L+L+L+L+L+L+L+L+L+L+L+L+L+L+L+L+L+L+L+L+L+L+L+L+L+L+L+L+L+L+L+L+L+L+L+L+L+L+S@a@",
"T@U@V@@@@@@@@@@@@@@@@@@@@@@@@@@@@@@@@@@@@@@@@@@@@@@@@@@@@@@@@@@@@@@@@@@@@@@@@@@@@@@@@@@@@@@@@@@@@@@@@@@@@@@@@@@@@@@@@@@@@@@@W@X@",
"Y@Z@V@@@@@@@@@@@@@@@@@@@@@@@@@@@@@@@@@@@@@@@@@@@@@@@@@@@@@@@@@@@@@@@@@@@@@@@@@@@@@@@@@@@@@@@@@@@@@@@@@@@@@@@@@@@@@@@@@@@@@@@`@ #",
"Y@.#+#@@@@@@@@@@@@@@@@@@@@@@@@@@@@@@@@@@@@@@@@@@@@@@@@@@@@@@@@@@@@@@@@@@@@@@@@@@@@@@@@@@@@@@@@@@@@@@@@@@@@@@@@@@@@@@@@@@@@d@`@ #",
"Y@@###$#V@V@V@V@V@V@V@V@V@V@V@V@V@V@V@V@V@V@V@V@V@V@V@V@V@V@V@V@V@V@V@V@V@V@V@V@V@V@V@V@V@V@V@V@V@V@V@V@V@V@V@V@V@V@V@V@V@V@%# #",
"Y@@###$#V@V@V@V@V@V@V@V@V@V@V@V@V@V@V@V@V@V@V@V@V@V@V@V@V@V@V@V@V@V@V@V@V@V@V@V@V@V@V@V@V@V@V@V@V@V@V@V@V@V@V@V@V@V@V@V@V@V@%# #",
"Y@@###$#+#+#&#$#*#=#=#=#=#=#=#=#=#=#=#=#=#=#=#=#=#=#=#=#=#=#=#=#=#=#=#=#=#=#=#=#=#=#=#=#=#=#=#=#=#=#=#=#=#=#-#;#>#,#+#+#+#+#'#)#",
"Y@@###$#!#!#~#{#]#~#########################################################################################]#^#/#(#!#!#!#!#_#)#",
":#<###$#!#!#+#[#}#|#1#2#3#3#3#3#3#3#3#3#3#3#3#3#3#3#3#3#3#3#3#3#3#3#3#3#3#3#3#3#3#3#3#3#3#3#3#3#3#3#3#1#2#1#4#5#6#7#!#!#!#(#_#)#",
"8#9###]#]#]#0#a#b#c#d#e#e#e#e#e#e#e#e#e#e#e#e#e#e#e#e#e#e#e#e#e#e#e#e#e#e#e#e#e#e#e#e#e#e#e#e#e#e#e#e#e#f#g#7 h#i#]#]#]#]#]#_#)#",
"8#9###]#]#]#0#a#b#j#u u u u u u u u u u u u u u u u u u u u u u u u u u u u u u u u u u u u u u u u u u u W.k#h#i#]#]#]#]#]#_#)#",
"8#l#m#~#~#~#0#n#o#p#u W W X W W W V W V W W W W W W W W V W W W W W W W W X W W W V Y W W W W X W W W W V A+q#r#s#~#~#~#~#~#_#t#",
"8#u#m#v#~#~#m#w#x#p#u W W V W W W W W W W W W W W W W W W W W W W W W W W V W W W W W W W W W V W W W W V y#z#A#s#B#~#~#~#~#C#D#",
"8#E#F#v###~#m#i#x#m u W W V W W V W G#G#G#G#G#G#G#G#G#G#G#G#G#G#G#G#G#G#G#G#G#G#G#G#G#G#G#H#V V W W V V V y#z#I#s#B#~#~#~#~#C#t#",
"8#u#F#v#v#v#F#J#K#L#u V ` X V U V G#M#M#M#M#M#M#M#M#M#M#M#M#M#M#M#M#M#M#M#M#M#M#M#M#M#M#M#N#O#X V U V ` X y#P#Q#n#s#v#v#v#v#R#S#",
"8#u#F#v#v#v#F#J#K#L#u X V X X V Y G#T# . . . . . . . . . . . . . . . . . . . . . . . . .U#N#V#H#X X Y Z X y#P#Q#n#s#v#v#v#v#R#S#",
"8#u#W#v#0#0#F#J#K#X#u X ` Y Z V Y G#M#M# . . . . . . . . . . . . . . . . . . . . .Y# .M#M#N#Z#`#Y V Y X Z  $.$+$n#@$0#0#0#0##$$$",
"8#%$W#0#0#0#W#J#K#X#u Z Z Y Y Z Z G#T#T#M# .&$&$&$&$&$&$&$&$&$&$&$&$&$&$&$&$&$&$&$*$M#T#T#N#Z#`#Y Z Z Z Z =$-$;$>$@$0#0#0#0#,$'$",
"8#%$)$0#0#0#W#J#K#X#u ` ` Y ` ` U G#M#M# . .&$&$&$&$&$&$&$&$&$&$&$&$&$&$&$&$&$&$&$*$Y#M#M#N#Z#`#Z ` U ` ` !$~$;${$@$m#m#m#m#,$'$",
"8#]$^$/$/$/$($_$:$X#u U Z ` Z U U G#T#T#M# .M#<$<$<$<$<$<$<$<$<$<$<$<$<$<$<$<$<$M#*$M#T#T#N#Z#`#Z U U Z ` !$[$}$|$/$/$/$/$/$1$'$",
"8#]$^$/$/$/$($_$:$X#u (.` ` U U U G#M#M# . .M#M#M#M#M#M#M#M#M#M#M#M#M#M#M#M#M#M#M#*$Y#M#M#N#Z#`#` U (.g.` !$[$}$|$/$/$/$/$/$1$'$",
"8#%$2$3$3$3$($4$5$6$u (.` U (.Y V.G#T#T#M# .M#<$<$<$<$<$<$<$<$<$<$<$<$<$<$<$<$<$M#*$M#T#T#N#Z#`#(.Y g.Z ` 7$[$8$9$0$3$3$3$3$,$'$",
"8#a$b$)$)$)$($c$5$d$u y.U U g.U (.G#Y#*$ . .M#M#M#M#M#M#M#M#M#M#M#M#M#M#M#M#M#M#M#*$ . .U#N#Z#`#g.U U y.(.<$e$f$g$)$)$)$)$)$,$'$",
"8#a$b$)$)$)$($c$5$d$u U W.U (.y.g.G#Y#*$ . .M#<$<$<$<$<$<$<$<$<$<$<$<$<$<$<$<$<$M#*$ . .U#N#Z#`#(.y.y.g.g.<$e$f$g$)$)$)$)$)$h$'$",
"8#a$b$)$^$^$i$j$k$l$W W.U V.g.g.V.G#Y#*$ . .M#M#M#M#M#M#M#M#M#M#M#M#M#M#M#M#M#M#M#*$ . .U#N#Z#`#g.g.V.V.V.t+m$f$g$)$^$^$^$^$n$o$",
"8#a$b$)$^$^$p$j$q$l$W (.W.V.g.V.y.G#Y#*$ . .M#<$<$<$<$<$<$<$<$<$<$<$<$<$<$<$<$<$M#*$ . .U#N#Z#`#g.V.g.g.V.t+m$f$g$)$^$^$^$^$r$o$",
"8#a$b$^$^$^$p$j$q$l$W V.s$V.V.M#M#G#Y#*$ . .M#M#M#M#M#M#M#M#M#M#M#M#M#M#M#M#M#M#M#*$ . .U#N#Z#`#V.M#M#Y+W.t$m$u$v$^$^$^$^$^$w$x$",
"8#y$z$^$^$^$p$j$q$A$V W.W.V.y.M#W.G#Y#*$ .*$*$*$*$*$*$*$*$*$*$*$*$*$*$*$*$*$*$*$*$*$ . .U#N#Z#`#V.M#W.y.W.B$C$D$E$^$^$^$^$^$w$F$",
"8#y$z$^$^$^$p$j$q$A$X V.G$V.M#W.W.G#Y#*$ . . . . . . . . . . . . . . . . . . . . . . . .U#N#Z#`#W.W.H$I$W.B$J$D$E$^$^$^$^$^$w$F$",
"8#K$L$M$2$2$N$O$P$Q$Z :+}.W.:+}.7+G#Y#*$ . . . . . . . . .R$M#R$M#R$M# . . . . . . . . .U#N#Z#`#M#}.}.z M#S$T$U$E$V$2$2$2$2$w$F$",
"8#K$L$M$2$2$N$O$P$Q$Z Y+W$W.7+j.G$G#Y#*$ . . . . . . . .R$M#R$M#R$M# . . . . . . . . . .U#N#Z#`#7+j.j.j.Y+X$Y$U$E$2$2$2$2$2$w$F$",
"8#K$Z$`$ % %.%O$+%Q$` @%6+Y+j+6+z G#Y#*$ . . . . . . . . . . . . . . . . . . . . . . . .U#N#Z#`#@%6+P+7+I$X$Y$#%$%`$ % % % %w$F$",
"8#K$Z$ % % %%%&%*%=%(.Y+b+s$G$6+-%G#Y#*$*$*$*$*$*$*$*$*$*$*$*$*$*$*$*$*$*$*$*$*$*$*$*$*$U#N#Z#`#@%b+;%s$I$X$e$>%,% % % % % %w$F$",
"8#K$Z$ % % %%%&%*%'%(.j+i+s$y#j.j.H#N#N#N#N#N#N#N#N#N#N#N#N#N#N#N#N#N#N#N#N#N#N#N#N#N#N#N#w V#H#)%j.j+s$I$X$e$>%,% % % % % %w$F$",
"8#!%~%{%L$L$]%^%/%A$g.(%|.I$(%|.|._%O#V#Z#Z#Z#Z#Z#Z#Z#Z#Z#Z#Z#Z#Z#Z#Z#Z#Z#Z#Z#Z#Z#Z#Z#Z#Z#V#O#I$(%|.|.|.i+:%e$<%[%}%L$L$L$L$|%1%",
"8#2%~%{%L$L$]%^%3%A$g.(%|.I$(%|.;%_%|.H#`#`#`#`#`#`#`#`#`#`#`#`#`#`#`#`#`#`#`#`#`#`#`#`#`#H#|.I$(%|.|.|.i+:%4%<%5%L$L$L$L$L$6%1%",
"7%8%9%0%L$L$]%^%3%l$a%A+|.-%s+|.|.;%|.i+b%|.)%(%_%(%|.|.c%|.|.;%b%|.|.b%|.-%d%)%e%|._%(%|.s+s+-%s+|.|.|.i+:%4%f%g%L$L$h%Z$&%i%j%",
"k%l%m%n%z$L$]%^%3%o%p%E+s+i+E+s+|.q%s+|.E+s+|.E+|.E+s+s+s+s+s+|.E+s+|.E+s+i+E+|.b%|.|.E+s+s+s+i+E+s+s+s+i+:%r%s%t%L$L$u%v%w%x%y%",
"z%A%B%9%C%L$]%^%3%o%p%E+s+i+E+s+|.|.s+|.E+s+|.E+|.E+s+s+s+s+s+|.E+s+|.E+s+i+E+|.E+s+|.E+s+s+s+i+E+s+s+s+i+:%r%s%D%L$L$b$E%F%G%H%",
"  I%J%K%L%M%N%O%P%Q%R%S%T%U%T%T%T%T%T%T%T%T%T%V%T%V%T%T%T%T%T%T%T%T%T%T%T%U%T%V%W%W%V%V%T%T%T%U%T%T%T%T%X%Y%Z%`% &.&M%+&@&#&$&  ",
"    %&&&*&=&-&;&>&,&'&0 '&)&)&)&)&)&)&)&)&)&)&)&)&)&)&)&)&)&)&)&)&)&)&)&)&)&)&)&)&)&)&)&)&)&)&)&)&)&)&)&7 !&~&{&]&^&=&/&(&_&    "};
