/* XPM */
static char * C:\Saturn\_Git\ss_save_parser\sys_header_counter_xpm[] = {
"10 10 3 1",
" 	c #000000",
".	c #FF0000",
"+	c #FFFF00",
"          ",
" ........ ",
" ........ ",
" ..++++.. ",
" ..++++.. ",
" ..++++.. ",
" ..++++.. ",
" ........ ",
" ........ ",
"          "};
